<?xml version="1.0" encoding="UTF-8" standalone="no"?>
<!-- Created with Inkscape (http://www.inkscape.org/) -->

<svg
   xmlns:dc="http://purl.org/dc/elements/1.1/"
   xmlns:cc="http://creativecommons.org/ns#"
   xmlns:rdf="http://www.w3.org/1999/02/22-rdf-syntax-ns#"
   xmlns:svg="http://www.w3.org/2000/svg"
   xmlns="http://www.w3.org/2000/svg"
   version="1.1"
   width="100%"
   height="100%"
   viewBox="0 -200 1000 1000"
   id="svg3073">
  <metadata
     id="metadata3083">
    <rdf:RDF>
      <cc:Work
         rdf:about="">
        <dc:format>image/svg+xml</dc:format>
        <dc:type
           rdf:resource="http://purl.org/dc/dcmitype/StillImage" />
        <dc:title></dc:title>
      </cc:Work>
    </rdf:RDF>
  </metadata>
  <defs
     id="defs3081" />
  <g
     transform="matrix(1,0,0,-1,0,800)"
     id="g3075">
    <path
       d="M 445,155 Q 445,85 386.5,41.5 328,-2 238,-2 160,-2 101.5,34.5 43,71 43,117 H 87 Q 87,87 131.5,64.5 176,42 238,42 q 72,0 117.5,31 45.5,31 45.5,82 0,106 -163,112 -51,2 -97,21 -98,40 -98,134 0,69 57,116 57,47 138,47 79,0 143,-34.5 64,-34.5 64,-78.5 h -44 q 0,30 -47.5,49.5 Q 306,541 238,541 175,541 131,507 87,473 87,422 87,317 238,311 293,309 342,290 445,251 445,155 z"
       id="path3077"
       style="fill:currentColor" />
  </g>
</svg>
