<?xml version="1.0" encoding="UTF-8" standalone="no"?>
<!-- Created with Inkscape (http://www.inkscape.org/) -->

<svg
   xmlns:dc="http://purl.org/dc/elements/1.1/"
   xmlns:cc="http://creativecommons.org/ns#"
   xmlns:rdf="http://www.w3.org/1999/02/22-rdf-syntax-ns#"
   xmlns:svg="http://www.w3.org/2000/svg"
   xmlns="http://www.w3.org/2000/svg"
   version="1.1"
   width="100%"
   height="100%"
   viewBox="0 -200 1000 1000"
   id="svg3073">
  <metadata
     id="metadata3083">
    <rdf:RDF>
      <cc:Work
         rdf:about="">
        <dc:format>image/svg+xml</dc:format>
        <dc:type
           rdf:resource="http://purl.org/dc/dcmitype/StillImage" />
        <dc:title></dc:title>
      </cc:Work>
    </rdf:RDF>
  </metadata>
  <defs
     id="defs3081" />
  <g
     transform="matrix(1,0,0,-1,0,800)"
     id="g3075">
    <path
       d="m 138,462 164,164 q 6,6 16,6 10,0 18.5,-7 8.5,-7 8.5,-16 0,-6 -5,-11 L 176,435 q -6,-6 -16,-6 -27,0 -27,22 0,6 5,11 z M 346,612 V 19 q 0,-20 -25,-20 -25,0 -25,19 v 594 q 0,20 25,20 25,0 25,-20 z M 302,4 140,167 q -5,5 -5,12 0,8 8.5,15 8.5,7 18.5,7 9,0 15,-6 L 340,32 q 5,-5 5,-11 0,-9 -8.5,-16 -8.5,-7 -18.5,-7 -10,0 -16,6 z"
       id="path3077"
       style="fill:currentColor" />
  </g>
</svg>
