<?xml version="1.0" encoding="UTF-8" standalone="no"?>
<svg
   xmlns:dc="http://purl.org/dc/elements/1.1/"
   xmlns:cc="http://creativecommons.org/ns#"
   xmlns:rdf="http://www.w3.org/1999/02/22-rdf-syntax-ns#"
   xmlns:svg="http://www.w3.org/2000/svg"
   xmlns="http://www.w3.org/2000/svg"
   version="1.1"
   id="svg2"
   height="38.037601"
   width="93.702011">
  <metadata
     id="metadata10">
    <rdf:RDF>
      <cc:Work
         rdf:about="">
        <dc:format>image/svg+xml</dc:format>
        <dc:type
           rdf:resource="http://purl.org/dc/dcmitype/StillImage" />
        <dc:title></dc:title>
      </cc:Work>
    </rdf:RDF>
  </metadata>
  <defs
     id="defs8">
    <marker
       id="marker5215"
       orient="auto"
       refY="4.5757256"
       refX="0.50005001"
       markerHeight="9.1514511"
       markerWidth="1.0001">
      <path
         style="fill:none;fill-rule:evenodd;stroke:#cccccc;stroke-width:1.00000012;stroke-linecap:round;stroke-linejoin:round;stroke-miterlimit:4;stroke-dasharray:none;stroke-opacity:1"
         d="m 0.50005,0.50712121 0,8.13720859"
         id="path4649" />
    </marker>
  </defs>
  <path
     id="path13718-9-0-5"
     d="m 17.997394,1.0142425 0,12.9739705"
     style="fill:none;fill-rule:evenodd;stroke:#000000;stroke-width:2;stroke-linecap:round;stroke-linejoin:round;stroke-miterlimit:4;stroke-dasharray:none;stroke-opacity:1" />
  <g
     id="g15164"
     transform="translate(3.0413259e-8,1.7582114)">
    <path
       style="fill:none;fill-rule:evenodd;stroke:#000000;stroke-width:2;stroke-linecap:round;stroke-linejoin:round;stroke-miterlimit:4;stroke-dasharray:none;stroke-opacity:1"
       d="m 1.0142324,23.284689 7.91631,-0.29873"
       id="path4924" />
    <path
       style="fill:none;stroke:#030303;stroke-width:2;stroke-linecap:round;stroke-linejoin:round;stroke-miterlimit:4;stroke-dasharray:none"
       d="m 27.821572,1.0142394 c 0.16929,8.1273 0.38451,16.9111296 -0.24995,24.2981796 -0.39127,2.59859 -0.60446,4.57063 -2.30177,6.89168 -1.69732,2.32105 -3.68435,3.33565 -7.53509,3.01883 -3.85073,-0.31681 -6.55617,-2.60597 -7.7653696,-6.21265 -1.20921,-3.60667 -0.73294,-8.05715 -0.88701,-12.08889 -0.0931,-6.24362 -0.0615,-15.3274996 -0.26581,-15.7496496"
       id="path4" />
  </g>
  <path
     id="path22-6-7-2"
     d="m 92.180651,23.524123 -0.0392,0"
     style="fill:none;stroke:#000000;stroke-width:3;stroke-linecap:round;stroke-linejoin:round;stroke-miterlimit:4;stroke-dasharray:none" />
  <path
     id="path13718-9-7-9-2-2"
     d="m 86.213768,23.516507 -16.469722,0 c -2.380336,0 -1.523533,-7.999999 -4,-7.999999 l -20.469722,0 c -2.380336,0 -1.523533,-7.9999995 -4,-7.9999995 l -22.469722,0"
     style="fill:none;fill-rule:evenodd;stroke:#000000;stroke-width:2;stroke-linecap:round;stroke-linejoin:round;stroke-miterlimit:4;stroke-dasharray:none;stroke-opacity:1" />
</svg>
