<?xml version="1.0" encoding="UTF-8" standalone="no"?>
<svg
   xmlns:dc="http://purl.org/dc/elements/1.1/"
   xmlns:cc="http://creativecommons.org/ns#"
   xmlns:rdf="http://www.w3.org/1999/02/22-rdf-syntax-ns#"
   xmlns:svg="http://www.w3.org/2000/svg"
   xmlns="http://www.w3.org/2000/svg"
   id="svg2"
   version="1.1"
   width="40.852322"
   height="61.980049"
   viewBox="0 0 40.852321 61.980049">
  <metadata
     id="metadata8">
    <rdf:RDF>
      <cc:Work
         rdf:about="">
        <dc:format>image/svg+xml</dc:format>
        <dc:type
           rdf:resource="http://purl.org/dc/dcmitype/StillImage" />
        <dc:title></dc:title>
      </cc:Work>
    </rdf:RDF>
  </metadata>
  <defs
     id="defs6" />
  <path
     id="path4139-7"
     d="m 18.726935,31.688255 c 0.94909,4.198591 2.695389,8.017558 5.368764,11.395061"
     style="fill:none;fill-rule:evenodd;stroke:#000000;stroke-width:2;stroke-linecap:round;stroke-linejoin:round;stroke-miterlimit:4;stroke-dasharray:none;stroke-opacity:1" />
  <path
     id="path4259-0-3-9-8-9-6-27-6-0-6-0-3"
     d="m 27.156664,1.0001 c 1.5167,0 7.1635,0.1034 7.1635,2.838 l 0,18.5052 5.5322,5.3634 -5.5322,5.3633 0,18.5052 c 0,2.7346 -5.6468,2.838 -7.1635,2.838"
     style="fill:none;fill-rule:evenodd;stroke:#000000;stroke-width:2;stroke-linecap:round;stroke-linejoin:round;stroke-miterlimit:4;stroke-dasharray:none;stroke-opacity:1" />
  <path
     style="fill:#ffffff;stroke:#030303;stroke-width:2;stroke-linecap:round;stroke-linejoin:round;stroke-miterlimit:4;stroke-dasharray:none"
     d="m 7.9946895,25.213231 c -0.451886,13.109288 0.280432,16.491503 -0.316758,29.864035 -0.07914,1.772117 -0.181627,3.719678 -0.313312,5.888568 M 14.295389,47.105791 C 9.8808195,51.236201 5.8216798,53.840504 1.0114195,57.443324"
     id="path9207" />
  <path
     id="path4957"
     d="m 17.945824,26.238427 4.62e-4,1.92e-4"
     style="fill:none;fill-rule:evenodd;stroke:#000000;stroke-width:3;stroke-linecap:round;stroke-linejoin:round;stroke-miterlimit:4;stroke-dasharray:none;stroke-opacity:1" />
  <path
     style="fill:none;fill-rule:evenodd;stroke:#000000;stroke-width:3;stroke-linecap:round;stroke-linejoin:round;stroke-miterlimit:4;stroke-dasharray:none;stroke-opacity:1"
     d="m 27.891168,47.037663 4.62e-4,1.92e-4"
     id="path10471" />
</svg>
