<?xml version="1.0" encoding="UTF-8" standalone="no"?>
<svg
   xmlns:dc="http://purl.org/dc/elements/1.1/"
   xmlns:cc="http://creativecommons.org/ns#"
   xmlns:rdf="http://www.w3.org/1999/02/22-rdf-syntax-ns#"
   xmlns:svg="http://www.w3.org/2000/svg"
   xmlns="http://www.w3.org/2000/svg"
   width="64.472641"
   height="46.183022"
   id="svg2"
   version="1.1">
  <metadata
     id="metadata10">
    <rdf:RDF>
      <cc:Work
         rdf:about="">
        <dc:format>image/svg+xml</dc:format>
        <dc:type
           rdf:resource="http://purl.org/dc/dcmitype/StillImage" />
        <dc:title></dc:title>
      </cc:Work>
    </rdf:RDF>
  </metadata>
  <defs
     id="defs8" />
  <path
     style="fill:none;fill-rule:evenodd;stroke:#000000;stroke-width:2;stroke-linecap:round;stroke-linejoin:round;stroke-miterlimit:4;stroke-dasharray:none;stroke-opacity:1"
     d="m 1.0133607,18.458094 7.4280358,2.75345"
     id="path4924" />
  <path
     style="fill:none;stroke:#030303;stroke-width:2;stroke-linecap:round;stroke-linejoin:round;stroke-miterlimit:4;stroke-dasharray:none"
     d="m 34.302646,8.1416063 c -2.95378,7.5734307 -6.116368,15.7709917 -9.529434,22.3529387 -1.355924,2.251052 -2.307553,3.991395 -4.76389,5.486233 -2.456347,1.494834 -4.680394,1.671799 -8.116773,-0.09452 C 8.4561768,34.119954 6.8326997,30.969719 7.0957612,27.174841 7.3588097,23.379967 9.5019508,19.450521 10.902489,15.666719 13.205806,9.8627381 16.71125,1.4824205 16.684042,1.0142187"
     id="path4" />
  <path
     style="fill:none;fill-rule:evenodd;stroke:#000000;stroke-width:2;stroke-linecap:round;stroke-linejoin:round;stroke-miterlimit:4;stroke-dasharray:none;stroke-opacity:1"
     d="M 22.351479,13.090881 16.28654,27.732938"
     id="path13718-9-7" />
  <path
     style="fill:none;stroke:#000000;stroke-width:3;stroke-linecap:round;stroke-linejoin:round;stroke-miterlimit:4;stroke-dasharray:none"
     d="m 24.402546,8.1903855 -0.03622,-0.015001"
     id="path22-6-7-2-4" />
  <path
     style="fill:none;stroke:#000000;stroke-width:3;stroke-linecap:round;stroke-linejoin:round;stroke-miterlimit:4;stroke-dasharray:none"
     d="M 26.761351,2.495726 26.725131,2.480725"
     id="path22-6-7-2-3" />
  <path
     id="path9207"
     d="m 30.186962,30.978072 c 13.912241,5.208704 15.716975,7.046315 33.272212,13.099819 M 48.001876,45.17708 c 5.505384,-2.497891 9.464809,-5.251425 14.634188,-8.316786"
     style="fill:none;stroke:#030303;stroke-width:2;stroke-linecap:round;stroke-linejoin:round;stroke-miterlimit:4;stroke-dasharray:none" />
</svg>
