<?xml version="1.0" encoding="UTF-8" standalone="no"?>
<svg
   xmlns:dc="http://purl.org/dc/elements/1.1/"
   xmlns:cc="http://creativecommons.org/ns#"
   xmlns:rdf="http://www.w3.org/1999/02/22-rdf-syntax-ns#"
   xmlns:svg="http://www.w3.org/2000/svg"
   xmlns="http://www.w3.org/2000/svg"
   width="80.443008"
   height="58.340881"
   id="svg4579"
   version="1.1">
  <metadata
     id="metadata4587">
    <rdf:RDF>
      <cc:Work
         rdf:about="">
        <dc:format>image/svg+xml</dc:format>
        <dc:type
           rdf:resource="http://purl.org/dc/dcmitype/StillImage" />
        <dc:title></dc:title>
      </cc:Work>
    </rdf:RDF>
  </metadata>
  <defs
     id="defs4585" />
  <path
     style="opacity:1;fill:none;stroke:#030303;stroke-width:2;stroke-linecap:round;stroke-linejoin:round;stroke-miterlimit:4;stroke-dasharray:none"
     d="m 58.120494,12.586136 8.31531,0.07027 m -8.455063,7.698088 9.210861,-0.03868 0.709399,31.025618 C 76.706233,20.713435 80.43257,8.5913161 79.203713,5.0000002 l -21.991615,0.246401 m 8.739003,26.5353928 -3.982965,0"
     id="path4581" />
  <path
     style="fill:none;stroke:#030303;stroke-width:2;stroke-linecap:round;stroke-linejoin:round;stroke-miterlimit:4;stroke-dasharray:none"
     d="m 22.322519,12.586136 -8.315309,0.07027 m 8.455063,7.698088 -9.210862,-0.03868 -0.7094,31.025618 C 3.7367795,20.713435 0.01044235,8.5913161 1.2392982,5.0000002 l 21.9916158,0.246401 m -8.739,26.5353928 3.982963,0"
     id="path4581-2" />
  <g
     id="g7807"
     transform="matrix(1.1028435,0,0,1.1047666,8.8225564,4.2895712)">
    <path
       id="path13718-9"
       d="m 22.720089,26.552432 0,-19.3302127"
       style="fill:none;fill-rule:evenodd;stroke:#000000;stroke-width:1.8119148;stroke-linecap:round;stroke-linejoin:round;stroke-miterlimit:4;stroke-dasharray:none;stroke-opacity:1" />
    <path
       id="path22-6-7-2"
       d="m 22.739689,32.244467 -0.0392,0"
       style="fill:none;stroke:#000000;stroke-width:2.71787214;stroke-linecap:round;stroke-linejoin:round;stroke-miterlimit:4;stroke-dasharray:none" />
    <path
       id="path22-6-7-2-3"
       d="m 22.739689,38.408322 -0.0392,0"
       style="fill:none;stroke:#000000;stroke-width:2.71787214;stroke-linecap:round;stroke-linejoin:round;stroke-miterlimit:4;stroke-dasharray:none" />
  </g>
  <g
     id="g7812"
     transform="matrix(1.1028435,0,0,1.1047666,8.8225564,4.5193371)">
    <path
       style="fill:none;fill-rule:evenodd;stroke:#000000;stroke-width:2.71787262;stroke-linecap:round;stroke-linejoin:miter;stroke-miterlimit:4;stroke-dasharray:none;stroke-opacity:1"
       d="m 34.221868,32.059294 0,10e-4"
       id="path7294-5" />
    <path
       style="fill:none;fill-rule:evenodd;stroke:#008000;stroke-width:2.71787262;stroke-linecap:round;stroke-linejoin:miter;stroke-miterlimit:4;stroke-dasharray:none;stroke-opacity:1"
       d="m 34.221868,32.059294 0,10e-4"
       id="path7294-5-0" />
    <path
       id="path22-6-7-2-9"
       d="m 34.161455,32.081508 0.0392,0"
       style="fill:none;stroke:#000000;stroke-width:2.71787214;stroke-linecap:round;stroke-linejoin:round;stroke-miterlimit:4;stroke-dasharray:none" />
    <path
       id="path22-6-7-2-3-3"
       d="m 34.161455,38.245363 0.0392,0"
       style="fill:none;stroke:#000000;stroke-width:2.71787214;stroke-linecap:round;stroke-linejoin:round;stroke-miterlimit:4;stroke-dasharray:none" />
    <path
       style="fill:none;fill-rule:evenodd;stroke:#000000;stroke-width:1.8119148;stroke-linecap:round;stroke-linejoin:round;stroke-miterlimit:4;stroke-dasharray:none;stroke-opacity:1"
       d="m 34.221718,7.0142425 0,19.5525735 -4.491128,-4.490522"
       id="path7294-2" />
  </g>
</svg>
