<?xml version="1.0" encoding="UTF-8" standalone="no"?>
<svg
   xmlns:dc="http://purl.org/dc/elements/1.1/"
   xmlns:cc="http://creativecommons.org/ns#"
   xmlns:rdf="http://www.w3.org/1999/02/22-rdf-syntax-ns#"
   xmlns:svg="http://www.w3.org/2000/svg"
   xmlns="http://www.w3.org/2000/svg"
   version="1.1"
   id="svg2"
   height="89.172646"
   width="89.357704">
  <metadata
     id="metadata10">
    <rdf:RDF>
      <cc:Work
         rdf:about="">
        <dc:format>image/svg+xml</dc:format>
        <dc:type
           rdf:resource="http://purl.org/dc/dcmitype/StillImage" />
        <dc:title></dc:title>
      </cc:Work>
    </rdf:RDF>
  </metadata>
  <defs
     id="defs8" />
  <g
     transform="matrix(0.63199175,1.0971176,-1.0946418,0.63342116,29.482965,39.965299)"
     id="g6308">
    <path
       style="fill:none;fill-rule:evenodd;stroke:#000000;stroke-width:1.58051276;stroke-linecap:round;stroke-linejoin:round;stroke-miterlimit:4;stroke-dasharray:none;stroke-opacity:1"
       d="m 1.0142324,23.279392 7.91631,0"
       id="path4924" />
    <path
       style="fill:none;stroke:#030303;stroke-width:1.58051276;stroke-linecap:round;stroke-linejoin:round;stroke-miterlimit:4;stroke-dasharray:none"
       d="m 27.821572,1.0142394 c 0.16929,8.1273 0.38451,16.9111296 -0.24995,24.2981796 -0.39127,2.59859 -0.60446,4.57063 -2.30177,6.89168 -1.69732,2.32105 -3.68435,3.33565 -7.53509,3.01883 -3.85073,-0.31681 -6.55617,-2.60597 -7.7653696,-6.21265 -1.20921,-3.60667 -0.73294,-8.05715 -0.88701,-12.08889 -0.0931,-6.24362 -0.0615,-15.3274996 -0.26581,-15.7496496"
       id="path4" />
  </g>
  <g
     transform="matrix(0,-1,1,0,14.799817,39.326784)"
     id="g8400">
    <path
       style="fill:none;fill-rule:evenodd;stroke:#000000;stroke-width:3.00000048;stroke-linecap:round;stroke-linejoin:miter;stroke-miterlimit:4;stroke-dasharray:none;stroke-opacity:1"
       d="m 29.749784,10.146082 9.99e-4,0"
       id="path7294-5" />
    <path
       style="fill:none;fill-rule:evenodd;stroke:#000000;stroke-width:2;stroke-linecap:round;stroke-linejoin:miter;stroke-miterlimit:4;stroke-dasharray:none;stroke-opacity:1"
       d="m -31.469008,10.145932 55.726918,0"
       id="path7294" />
    <path
       style="fill:none;fill-rule:evenodd;stroke:#000000;stroke-width:2;stroke-linecap:round;stroke-linejoin:round;stroke-miterlimit:4;stroke-dasharray:none;stroke-opacity:1"
       d="m -31.469008,5.6589464 0,8.9739706"
       id="path13718-9-0-5" />
  </g>
  <path
     id="path4-6"
     d="m 61.689871,59 c 4.303995,0 8.745858,3.655027 8.745858,10.776064 0,7.443561 -4.042082,13.099437 -8.743852,17.852604 C 56.484131,82.363987 52.946259,76.501767 52.946259,70.102162 52.946259,62.46804 57.385884,59 61.689871,59 Z"
     style="fill:none;stroke:#020202;stroke-width:2;stroke-linecap:round;stroke-linejoin:round;stroke-miterlimit:4;stroke-dasharray:none" />
  <path
     style="fill:none;stroke:#030303;stroke-width:2;stroke-linecap:round;stroke-linejoin:round;stroke-miterlimit:4;stroke-dasharray:none"
     d="m 59.403548,51.966858 0.0525,-6.247502 m 5.751365,6.352502 -0.0289,-6.920352 23.179745,-0.53299 C 65.475583,38.002927 56.418953,35.203238 53.735823,36.126507 l 0.18409,16.522852 m 19.82502,-6.565832 0,2.9925"
     id="path4581" />
  <path
     id="path4-6-9"
     d="m 61.689871,1 c 4.303995,0 8.745858,3.655027 8.745858,10.776064 0,7.443561 -4.042082,13.099437 -8.743852,17.852604 C 56.484131,24.363987 52.946259,18.501767 52.946259,12.102162 52.946259,4.46804 57.385884,1 61.689871,1 Z"
     style="fill:none;stroke:#020202;stroke-width:2;stroke-linecap:round;stroke-linejoin:round;stroke-miterlimit:4;stroke-dasharray:none" />
</svg>
