<?xml version="1.0" encoding="UTF-8" standalone="no"?>
<svg
   xmlns:dc="http://purl.org/dc/elements/1.1/"
   xmlns:cc="http://creativecommons.org/ns#"
   xmlns:rdf="http://www.w3.org/1999/02/22-rdf-syntax-ns#"
   xmlns:svg="http://www.w3.org/2000/svg"
   xmlns="http://www.w3.org/2000/svg"
   version="1.1"
   id="svg8"
   height="87.843307"
   width="108.90481">
  <metadata
     id="metadata16">
    <rdf:RDF>
      <cc:Work
         rdf:about="">
        <dc:format>image/svg+xml</dc:format>
        <dc:type
           rdf:resource="http://purl.org/dc/dcmitype/StillImage" />
        <dc:title></dc:title>
      </cc:Work>
    </rdf:RDF>
  </metadata>
  <defs
     id="defs14" />
  <path
     d="m 103.14763,2.0934634 c 3.00266,3.68766 4.97888,8.3912796 4.73707,13.2097296 -0.0981,1.95495 -0.69928,3.82537 -1.29331,5.67198 M 88.523915,1.0084034 c 7.039961,5.1060496 11.701595,13.4653596 12.892245,22.1562996 0.66836,4.87861 1.02554,10.96307 -2.706024,14.06184 -3.08083,2.5584 -8.742361,3.2331 -12.023951,1.79256 -7.09381,-3.11401 -7.87002,-11.60626 -1.52268,-14.75908 5.822171,-2.89197 11.694631,-2.03143 15.712035,2.53248"
     style="fill:none;stroke:#000000;stroke-width:2;stroke-linecap:round;stroke-linejoin:round;stroke-miterlimit:4;stroke-dasharray:none"
     id="path3373" />
  <path
     d="m 5.7571775,49.168556 c -3.002659,3.68766 -4.97887888,8.391279 -4.737069,13.209729 0.0981,1.95495 0.69928,3.82537 1.29331,5.67198 M 20.380888,48.083496 c -7.039959,5.10605 -11.701591,13.465359 -12.8922405,22.156299 -0.66836,4.87861 -1.025539,10.963075 2.7060215,14.061845 3.08083,2.5584 8.74236,3.2331 12.023949,1.79256 7.09381,-3.11401 7.87002,-11.606265 1.52268,-14.759085 -5.822169,-2.89197 -11.694629,-2.03143 -15.712029,2.53248"
     style="fill:none;stroke:#000000;stroke-width:2;stroke-linecap:round;stroke-linejoin:round;stroke-miterlimit:4;stroke-dasharray:none"
     id="path3373-3" />
  <path
     style="fill:none;fill-rule:evenodd;stroke:#000000;stroke-width:3.00000048;stroke-linecap:round;stroke-linejoin:miter;stroke-miterlimit:4;stroke-dasharray:none;stroke-opacity:1"
     d="m 39.805226,26.233058 0,0.001"
     id="path7294-5-3-9-4-3-2" />
  <path
     style="color:#000000;clip-rule:nonzero;display:inline;overflow:visible;visibility:visible;opacity:1;isolation:auto;mix-blend-mode:normal;color-interpolation:sRGB;color-interpolation-filters:linearRGB;solid-color:#000000;solid-opacity:1;fill:none;fill-opacity:1;fill-rule:evenodd;stroke:#000000;stroke-width:3.00000048;stroke-linecap:round;stroke-linejoin:miter;stroke-miterlimit:4;stroke-dasharray:none;stroke-dashoffset:0;stroke-opacity:1;color-rendering:auto;image-rendering:auto;shape-rendering:auto;text-rendering:auto;enable-background:accumulate"
     d="m 54.452151,53.575443 0,10e-4"
     id="path7294-5-3-9-4-3-1-6-0" />
  <path
     style="color:#000000;clip-rule:nonzero;display:inline;overflow:visible;visibility:visible;opacity:1;isolation:auto;mix-blend-mode:normal;color-interpolation:sRGB;color-interpolation-filters:linearRGB;solid-color:#000000;solid-opacity:1;fill:none;fill-opacity:1;fill-rule:evenodd;stroke:#000000;stroke-width:3.00000048;stroke-linecap:round;stroke-linejoin:miter;stroke-miterlimit:4;stroke-dasharray:none;stroke-dashoffset:0;stroke-opacity:1;color-rendering:auto;image-rendering:auto;shape-rendering:auto;text-rendering:auto;enable-background:accumulate"
     d="m 69.099578,80.917829 0,0.001"
     id="path7294-5-3-9-4-3" />
  <path
     d="M 66.062277,76.334322 A 45.432373,45.432373 0 0 1 68.167455,27.517004"
     id="path4153-3-6-9"
     style="color:#000000;clip-rule:nonzero;display:inline;overflow:visible;visibility:visible;opacity:1;isolation:auto;mix-blend-mode:normal;color-interpolation:sRGB;color-interpolation-filters:linearRGB;solid-color:#000000;solid-opacity:1;fill:none;fill-opacity:1;fill-rule:evenodd;stroke:#000000;stroke-width:2.00000048;stroke-linecap:round;stroke-linejoin:round;stroke-miterlimit:4;stroke-dasharray:none;stroke-dashoffset:0;stroke-opacity:1;color-rendering:auto;image-rendering:auto;shape-rendering:auto;text-rendering:auto;enable-background:accumulate" />
  <path
     transform="scale(-1,1)"
     d="M -40.737341,79.634882 A 45.432373,45.432373 0 0 1 -42.842242,30.817085"
     id="path4153-3-5-7"
     style="color:#000000;clip-rule:nonzero;display:inline;overflow:visible;visibility:visible;opacity:1;isolation:auto;mix-blend-mode:normal;color-interpolation:sRGB;color-interpolation-filters:linearRGB;solid-color:#000000;solid-opacity:1;fill:none;fill-opacity:1;fill-rule:evenodd;stroke:#000000;stroke-width:2.00000048;stroke-linecap:round;stroke-linejoin:round;stroke-miterlimit:4;stroke-dasharray:none;stroke-dashoffset:0;stroke-opacity:1;color-rendering:auto;image-rendering:auto;shape-rendering:auto;text-rendering:auto;enable-background:accumulate" />
  <path
     id="path13718-9-0-5"
     d="M 71.842978,30.090633 68.167455,27.517004 64.491932,24.943375"
     style="fill:none;fill-rule:evenodd;stroke:#000000;stroke-width:2;stroke-linecap:round;stroke-linejoin:round;stroke-miterlimit:4;stroke-dasharray:none;stroke-opacity:1" />
  <path
     id="path13718-9-0-5-6"
     d="m 37.061818,77.061253 3.675523,2.573629 3.675523,2.573629"
     style="fill:none;fill-rule:evenodd;stroke:#000000;stroke-width:2;stroke-linecap:round;stroke-linejoin:round;stroke-miterlimit:4;stroke-dasharray:none;stroke-opacity:1" />
</svg>
