<?xml version="1.0" encoding="UTF-8" standalone="no"?>
<svg
   xmlns:dc="http://purl.org/dc/elements/1.1/"
   xmlns:cc="http://creativecommons.org/ns#"
   xmlns:rdf="http://www.w3.org/1999/02/22-rdf-syntax-ns#"
   xmlns:svg="http://www.w3.org/2000/svg"
   xmlns="http://www.w3.org/2000/svg"
   version="1.1"
   id="svg2"
   height="63.965267"
   width="86.957832">
  <metadata
     id="metadata10">
    <rdf:RDF>
      <cc:Work
         rdf:about="">
        <dc:format>image/svg+xml</dc:format>
        <dc:type
           rdf:resource="http://purl.org/dc/dcmitype/StillImage" />
        <dc:title></dc:title>
      </cc:Work>
    </rdf:RDF>
  </metadata>
  <defs
     id="defs8" />
  <path
     id="path4"
     d="m 52.236513,54.773985 c 0.49265,-4.30909 1.5312,-8.657329 5.54475,-11.656179 4.01355,-2.99885 13.18398,-3.17363 17.70588,-1.75398 4.52191,1.41964 6.17466,3.40103 7.97692,5.97346 1.80227,2.572429 2.87672,4.645279 2.37404,7.324659 -0.74025,1.67447 -1.40889,1.14734 -5.33248,0.80822 -15.20391,-0.43034 -27.46018,-0.0185 -40.622451,0.1345"
     style="fill:none;stroke:#030303;stroke-width:2;stroke-linecap:round;stroke-linejoin:round;stroke-miterlimit:4;stroke-dasharray:none" />
  <path
     style="fill:none;fill-rule:evenodd;stroke:#000000;stroke-width:2;stroke-linecap:round;stroke-linejoin:round;stroke-miterlimit:4;stroke-dasharray:none;stroke-opacity:1"
     d="m 13.341952,62.465117 42.029465,0"
     id="path13718-9" />
  <path
     style="fill:none;stroke:#000000;stroke-width:3;stroke-linecap:round;stroke-linejoin:round;stroke-miterlimit:4;stroke-dasharray:none"
     d="m 7.6852187,62.465117 0.0392,0"
     id="path22-6-7-2" />
  <path
     style="fill:none;stroke:#000000;stroke-width:3;stroke-linecap:round;stroke-linejoin:round;stroke-miterlimit:4;stroke-dasharray:none"
     d="m 1.5213637,62.465117 0.0392,0"
     id="path22-6-7-2-3" />
  <path
     id="path4259-0-3-9-8-9-6-27-6-0-6-0-3"
     d="m 25.50397,1.0001 c 1.5167,0 7.1635,0.1034 7.1635,2.838 l 0,18.5052 5.5322,5.3634 -5.5322,5.3633 0,18.505199 c 0,2.7346 -5.6468,2.838 -7.1635,2.838"
     style="fill:none;fill-rule:evenodd;stroke:#000000;stroke-width:2;stroke-linecap:round;stroke-linejoin:round;stroke-miterlimit:4;stroke-dasharray:none;stroke-opacity:1" />
</svg>
