<?xml version="1.0" encoding="UTF-8" standalone="no"?>
<svg
   xmlns:dc="http://purl.org/dc/elements/1.1/"
   xmlns:cc="http://creativecommons.org/ns#"
   xmlns:rdf="http://www.w3.org/1999/02/22-rdf-syntax-ns#"
   xmlns:svg="http://www.w3.org/2000/svg"
   xmlns="http://www.w3.org/2000/svg"
   version="1.1"
   id="svg8947"
   viewBox="0 0 50 72.999998"
   height="73"
   width="50">
  <defs
     id="defs8949" />
  <metadata
     id="metadata8952">
    <rdf:RDF>
      <cc:Work
         rdf:about="">
        <dc:format>image/svg+xml</dc:format>
        <dc:type
           rdf:resource="http://purl.org/dc/dcmitype/StillImage" />
        <dc:title></dc:title>
      </cc:Work>
    </rdf:RDF>
  </metadata>
  <path
     transform="scale(-1,-1)"
     d="m -27.913621,-46.809907 a 7.9999995,7.9999995 0 0 1 8.561372,-5.107071 7.9999995,7.9999995 0 0 1 6.892083,7.20267 7.9999995,7.9999995 0 0 1 -5.47924,8.328096"
     id="path26992"
     style="color:#000000;clip-rule:nonzero;display:inline;overflow:visible;visibility:visible;opacity:1;isolation:auto;mix-blend-mode:normal;color-interpolation:sRGB;color-interpolation-filters:linearRGB;solid-color:#000000;solid-opacity:1;fill:none;fill-opacity:1;fill-rule:evenodd;stroke:#000000;stroke-width:1.99999976;stroke-linecap:round;stroke-linejoin:round;stroke-miterlimit:4;stroke-dasharray:none;stroke-dashoffset:0;stroke-opacity:1;color-rendering:auto;image-rendering:auto;shape-rendering:auto;text-rendering:auto;enable-background:accumulate" />
  <g
     transform="matrix(0.99333859,0,0,0.73807392,0.16611498,57.39534)"
     id="g27614">
    <g
       transform="matrix(1.0001012,0,0,0.99922534,-0.00394655,0.00154742)"
       id="g27621">
      <path
         style="color:#000000;clip-rule:nonzero;display:inline;overflow:visible;visibility:visible;opacity:1;isolation:auto;mix-blend-mode:normal;color-interpolation:sRGB;color-interpolation-filters:linearRGB;solid-color:#000000;solid-opacity:1;fill:none;fill-opacity:1;fill-rule:evenodd;stroke:#000000;stroke-width:2.33654451;stroke-linecap:round;stroke-linejoin:round;stroke-miterlimit:4;stroke-dasharray:none;stroke-dashoffset:0;stroke-opacity:1;color-rendering:auto;image-rendering:auto;shape-rendering:auto;text-rendering:auto;enable-background:accumulate"
         id="path27412"
         d="M 44.506494,5.7567453 A 24,9.000001 0 0 1 43.174367,16.877968 24,9.000001 0 0 1 14.035206,19.00582 24,9.000001 0 0 1 1.6723326,8.8846571 24,9.000001 0 0 1 25.001114,2" />
      <path
         id="path7294-5-3-8-0-6-3"
         d="M 39.363744,3.789948 39.36282,3.789565"
         style="display:inline;fill:none;fill-rule:evenodd;stroke:#000000;stroke-width:3.50481653;stroke-linecap:round;stroke-linejoin:miter;stroke-miterlimit:4;stroke-dasharray:none;stroke-opacity:1" />
      <path
         id="path7294-5-3-8-0-6-3-0"
         d="M 33.480058,2.580783 33.479134,2.5804"
         style="display:inline;fill:none;fill-rule:evenodd;stroke:#000000;stroke-width:3.50481653;stroke-linecap:round;stroke-linejoin:miter;stroke-miterlimit:4;stroke-dasharray:none;stroke-opacity:1" />
    </g>
  </g>
  <path
     style="fill:none;stroke:#020202;stroke-width:2;stroke-linecap:round;stroke-linejoin:round;stroke-miterlimit:4;stroke-dasharray:none"
     d="M 23,1.0000001 C 35,1.0000001 39,6 39,12 39,24 29,35 23,37 Z"
     id="path4-6-7" />
  <path
     id="path17057-2"
     d="m 40.985903,41.999917 -17.971807,0"
     style="fill:none;fill-rule:evenodd;stroke:#000000;stroke-width:1.99999976;stroke-linecap:round;stroke-linejoin:round;stroke-miterlimit:4;stroke-dasharray:none;stroke-opacity:1" />
</svg>
