<?xml version="1.0" encoding="UTF-8" standalone="no"?>
<svg
   xmlns:dc="http://purl.org/dc/elements/1.1/"
   xmlns:cc="http://creativecommons.org/ns#"
   xmlns:rdf="http://www.w3.org/1999/02/22-rdf-syntax-ns#"
   xmlns:svg="http://www.w3.org/2000/svg"
   xmlns="http://www.w3.org/2000/svg"
   width="57.992157"
   height="61.336529"
   id="svg2"
   version="1.1">
  <metadata
     id="metadata10">
    <rdf:RDF>
      <cc:Work
         rdf:about="">
        <dc:format>image/svg+xml</dc:format>
        <dc:type
           rdf:resource="http://purl.org/dc/dcmitype/StillImage" />
        <dc:title></dc:title>
      </cc:Work>
    </rdf:RDF>
  </metadata>
  <defs
     id="defs8" />
  <path
     style="fill:none;stroke:#030303;stroke-width:2;stroke-linecap:round;stroke-linejoin:round;stroke-miterlimit:4;stroke-dasharray:none"
     d="m 28.485063,37.725362 c -3.604155,-1.094363 -6.530231,1.181786 -8.512469,3.488084 -1.982229,2.306307 -3.83297,7.967868 -0.276097,14.038784 3.556872,6.070916 13.104509,6.525591 16.907372,2.310569 3.802871,-4.21503 4.545157,-9.329784 2.905426,-13.851679 -1.751128,-4.829097 -7.568112,-8.626186 -10.349053,-5.180904 -1.959858,2.428047 -0.360932,7.025545 1.128821,9.785472"
     id="path4" />
  <path
     d="M 1.0053369,22.110722 A 29.172674,21.484789 0 0 1 28.994534,6.677978 29.172674,21.484789 0 0 1 56.986817,22.107691"
     id="path4140"
     style="color:#000000;clip-rule:nonzero;display:inline;overflow:visible;visibility:visible;opacity:1;isolation:auto;mix-blend-mode:normal;color-interpolation:sRGB;color-interpolation-filters:linearRGB;solid-color:#000000;solid-opacity:1;fill:none;fill-opacity:1;fill-rule:evenodd;stroke:#000000;stroke-width:2;stroke-linecap:round;stroke-linejoin:round;stroke-miterlimit:4;stroke-dasharray:none;stroke-dashoffset:0;stroke-opacity:1;color-rendering:auto;image-rendering:auto;shape-rendering:auto;text-rendering:auto;enable-background:accumulate" />
  <g
     id="g29897"
     transform="matrix(0,1,-1,0,19.969956,-6.6450925)">
    <g
       id="g4681"
       transform="translate(-14,0)">
      <g
         id="g4686"
         transform="translate(6,0)">
        <path
           id="path13718-9"
           d="m 30.989548,-9.0261234 -15.330213,0"
           style="fill:none;fill-rule:evenodd;stroke:#000000;stroke-width:2;stroke-linecap:round;stroke-linejoin:round;stroke-miterlimit:4;stroke-dasharray:none;stroke-opacity:1" />
        <path
           id="path22-6-7-2"
           d="m 36.681583,-9.0065232 0,-0.0392"
           style="fill:none;stroke:#000000;stroke-width:3;stroke-linecap:round;stroke-linejoin:round;stroke-miterlimit:4;stroke-dasharray:none" />
        <path
           id="path22-6-7-2-3"
           d="m 42.845438,-9.0065232 0,-0.0392"
           style="fill:none;stroke:#000000;stroke-width:3;stroke-linecap:round;stroke-linejoin:round;stroke-miterlimit:4;stroke-dasharray:none" />
      </g>
    </g>
  </g>
</svg>
