<?xml version="1.0" standalone="no"?>
<!DOCTYPE svg PUBLIC "-//W3C//DTD SVG 1.1//EN" "http://www.w3.org/Graphics/SVG/1.1/DTD/svg11.dtd" >
<svg viewBox="0 -200 1000 1000">
  <g transform="matrix(1 0 0 -1 0 800)">
   <path fill="currentColor"
d="M491 561q0 -47 -33.5 -80.5t-80.5 -33.5q-46 0 -79 33.5t-33 80.5t33 80t79 33q47 0 80.5 -33t33.5 -80zM235 561q0 -47 -33.5 -80.5t-80.5 -33.5t-80 33.5t-33 80.5t33.5 80t79.5 33q47 0 80.5 -33.5t33.5 -79.5zM447 561q0 29 -20.5 49t-49.5 20q-28 0 -48 -20t-20 -49
t20 -49.5t48 -20.5q29 0 49.5 20.5t20.5 49.5zM191 561q0 28 -20.5 48.5t-49.5 20.5q-28 0 -48.5 -20t-20.5 -49t20 -49.5t49 -20.5t49.5 20.5t20.5 49.5z" />
  </g>

</svg>
