<?xml version="1.0" standalone="no"?>
<!DOCTYPE svg PUBLIC "-//W3C//DTD SVG 1.1//EN" "http://www.w3.org/Graphics/SVG/1.1/DTD/svg11.dtd" >
<svg viewBox="0 -200 1000 1000">
  <g transform="matrix(1 0 0 -1 0 800)">
   <path fill="currentColor"
d="M173 292q15 -13 43 -22q17 -5 17 -19q0 -28 2 -92q2 -77 1 -91q-4 -36 26 -50.5t104 -14.5v39q-88 0 -86 23q1 13 -1 92l-2 94q0 29 -25 40q20 15 20 37q0 9 2 83l1 97q0 19 32 24q13 2 59 2v44q-82 0 -108.5 -14t-26.5 -56q0 -23 -1 -97l-2 -82q0 -9 -14 -15
q-24 -11 -41 -22z" />
  </g>

</svg>
