<?xml version="1.0" encoding="UTF-8" standalone="no"?>
<svg
   xmlns:dc="http://purl.org/dc/elements/1.1/"
   xmlns:cc="http://creativecommons.org/ns#"
   xmlns:rdf="http://www.w3.org/1999/02/22-rdf-syntax-ns#"
   xmlns:svg="http://www.w3.org/2000/svg"
   xmlns="http://www.w3.org/2000/svg"
   width="95.420204"
   height="42.811283"
   id="svg2"
   version="1.1">
  <metadata
     id="metadata10">
    <rdf:RDF>
      <cc:Work
         rdf:about="">
        <dc:format>image/svg+xml</dc:format>
        <dc:type
           rdf:resource="http://purl.org/dc/dcmitype/StillImage" />
        <dc:title></dc:title>
      </cc:Work>
    </rdf:RDF>
  </metadata>
  <defs
     id="defs8" />
  <path
     style="fill:none;stroke:#030303;stroke-width:2;stroke-linecap:round;stroke-linejoin:round;stroke-miterlimit:4;stroke-dasharray:none"
     d="m 61.667148,14.752448 c -1.39163,-4.58493 1.5028,-8.3072602 4.43557,-10.8289101 2.93278,-2.52164 10.13222,-4.87600997 17.85221,-0.35123 7.71999,4.5247799 8.29817,16.6705501 2.9382,21.5082601 -5.35998,4.83772 -11.86408,5.782 -17.61428,3.69606 -6.14085,-2.22765 -10.96936,-9.62757 -6.58822,-13.16527 3.08759,-2.49318 8.93393,-0.45915 12.44355,1.436"
     id="path4" />
  <path
     style="fill:none;stroke:#030303;stroke-width:2;stroke-linecap:round;stroke-linejoin:round;stroke-miterlimit:4;stroke-dasharray:none"
     d="m 33.753059,26.752448 c 1.39163,-4.58493 -1.5028,-8.30726 -4.435571,-10.82891 -2.93278,-2.52164 -10.13222,-4.87601 -17.85221,-0.35123 -7.7199902,4.52478 -8.2981702,16.67055 -2.9382003,21.50826 5.3599803,4.83772 11.8640803,5.782 17.6142803,3.69606 6.140851,-2.22765 10.969361,-9.62757 6.588221,-13.16527 -3.08759,-2.49318 -8.933931,-0.45915 -12.443551,1.436"
     id="path4-3" />
  <path
     style="fill:none;fill-rule:evenodd;stroke:#000000;stroke-width:2;stroke-linecap:round;stroke-linejoin:round;stroke-miterlimit:4;stroke-dasharray:none;stroke-opacity:1"
     d="m 47.710102,33.899857 0,-24.98843"
     id="path7114-6-7-2-2-9-7-4" />
  <circle
     style="color:#000000;clip-rule:nonzero;display:inline;overflow:visible;visibility:visible;opacity:1;isolation:auto;mix-blend-mode:normal;color-interpolation:sRGB;color-interpolation-filters:linearRGB;solid-color:#000000;solid-opacity:1;fill:none;fill-opacity:1;fill-rule:evenodd;stroke:#000000;stroke-width:2.00000024;stroke-linecap:round;stroke-linejoin:round;stroke-miterlimit:4;stroke-dasharray:none;stroke-dashoffset:0;stroke-opacity:1;color-rendering:auto;image-rendering:auto;shape-rendering:auto;text-rendering:auto;enable-background:accumulate"
     id="path4869-3"
     cx="47.710102"
     cy="21.405642"
     r="6.1010437" />
  <path
     style="fill:none;fill-rule:evenodd;stroke:#000000;stroke-width:1.99999988;stroke-linecap:round;stroke-linejoin:round;stroke-miterlimit:4;stroke-dasharray:none;stroke-opacity:1"
     d="m 94.420106,27.796457 0,-24.7822146"
     id="path7114-6-7-2-2-9-7-4-3-7" />
  <path
     style="fill:none;fill-rule:evenodd;stroke:#000000;stroke-width:1.99999988;stroke-linecap:round;stroke-linejoin:round;stroke-miterlimit:4;stroke-dasharray:none;stroke-opacity:1"
     d="m 1.0000999,39.797041 0,-24.782213"
     id="path7114-6-7-2-2-9-7-4-3-7-5-3" />
</svg>
