<?xml version="1.0" encoding="UTF-8" standalone="no"?>
<svg
   xmlns:dc="http://purl.org/dc/elements/1.1/"
   xmlns:cc="http://creativecommons.org/ns#"
   xmlns:rdf="http://www.w3.org/1999/02/22-rdf-syntax-ns#"
   xmlns:svg="http://www.w3.org/2000/svg"
   xmlns="http://www.w3.org/2000/svg"
   width="76.079712"
   height="47.780136"
   id="svg2"
   version="1.1">
  <metadata
     id="metadata10">
    <rdf:RDF>
      <cc:Work
         rdf:about="">
        <dc:format>image/svg+xml</dc:format>
        <dc:type
           rdf:resource="http://purl.org/dc/dcmitype/StillImage" />
        <dc:title></dc:title>
      </cc:Work>
    </rdf:RDF>
  </metadata>
  <defs
     id="defs8" />
  <path
     d="m 27.665279,1.0142394 c 0.16929,8.127305 0.384515,16.9111296 -0.249945,24.2981846 -0.391275,2.598585 -0.60446,4.570625 -2.301775,6.891675 -1.69732,2.321055 -3.68435,3.335655 -7.535085,3.01884 -3.850735,-0.31682 -6.556175,-2.60598 -7.7653747,-6.21265 -1.209205,-3.606675 -0.732935,-8.057155 -0.88701,-12.088895 -0.09314,-6.243615 -0.0615,-15.3275046 -0.26581,-15.7496546 M 1.0138943,43.459059 c 9.9770297,-2.2557 7.93786,-13.130115 7.93786,-20.83051"
     style="fill:none;stroke:#000000;stroke-width:2;stroke-linecap:round;stroke-linejoin:round;stroke-miterlimit:4;stroke-dasharray:none"
     id="path4" />
  <path
     style="fill:none;stroke:#000000;stroke-width:2;stroke-linecap:round;stroke-linejoin:round;stroke-miterlimit:4;stroke-dasharray:none"
     d="m 75.079712,16.494929 c 0,13.9388 -6.54453,18.145065 -13.244593,18.145065 -14.33312,0 -25.639025,-11.041315 -28.372365,-18.223545 2.089575,0.43787 31.039168,0.474175 41.616958,0.07848 z"
     id="path4-6-7" />
  <path
     id="path7294-2"
     d="m 11.726961,40.779436 57.055942,0"
     style="fill:none;fill-rule:evenodd;stroke:#000000;stroke-width:2;stroke-linecap:round;stroke-linejoin:miter;stroke-miterlimit:4;stroke-dasharray:none;stroke-opacity:1" />
  <path
     id="path7294-5-6"
     d="m 74.274776,40.779587 10e-4,0"
     style="fill:none;fill-rule:evenodd;stroke:#000000;stroke-width:3.00000048;stroke-linecap:round;stroke-linejoin:miter;stroke-miterlimit:4;stroke-dasharray:none;stroke-opacity:1" />
  <path
     id="path7294-5-3-9"
     d="m 40.254432,46.279987 10e-4,0"
     style="fill:none;fill-rule:evenodd;stroke:#000000;stroke-width:3.00000048;stroke-linecap:round;stroke-linejoin:miter;stroke-miterlimit:4;stroke-dasharray:none;stroke-opacity:1" />
</svg>
