<?xml version="1.0" encoding="UTF-8" standalone="no"?>
<svg
   xmlns:dc="http://purl.org/dc/elements/1.1/"
   xmlns:cc="http://creativecommons.org/ns#"
   xmlns:rdf="http://www.w3.org/1999/02/22-rdf-syntax-ns#"
   xmlns:svg="http://www.w3.org/2000/svg"
   xmlns="http://www.w3.org/2000/svg"
   viewBox="0 0 163.85336 351.64652"
   height="351.64651"
   width="163.85336"
   version="1.1"
   id="svg2">
  <metadata
     id="metadata8">
    <rdf:RDF>
      <cc:Work
         rdf:about="">
        <dc:format>image/svg+xml</dc:format>
        <dc:type
           rdf:resource="http://purl.org/dc/dcmitype/StillImage" />
        <dc:title></dc:title>
      </cc:Work>
    </rdf:RDF>
  </metadata>
  <defs
     id="defs6" />
  <path
     d="M 59.903498,27.531296 A 21.484789,21.484789 0 0 1 80.516693,12.098551 21.484789,21.484789 0 0 1 101.13216,27.528265"
     id="path4140"
     style="color:#000000;clip-rule:nonzero;display:inline;overflow:visible;visibility:visible;opacity:1;isolation:auto;mix-blend-mode:normal;color-interpolation:sRGB;color-interpolation-filters:linearRGB;solid-color:#000000;solid-opacity:1;fill:none;fill-opacity:1;fill-rule:evenodd;stroke:#000000;stroke-width:2;stroke-linecap:round;stroke-linejoin:round;stroke-miterlimit:4;stroke-dasharray:none;stroke-dashoffset:0;stroke-opacity:1;color-rendering:auto;image-rendering:auto;shape-rendering:auto;text-rendering:auto;enable-background:accumulate" />
  <path
     transform="scale(1,-1)"
     d="m 65.88375,-75.522867 a 17.72817,17.72817 0 0 1 14.658806,-7.722216 17.72817,17.72817 0 0 1 14.637595,7.762345"
     id="path4140-7"
     style="color:#000000;clip-rule:nonzero;display:inline;overflow:visible;visibility:visible;opacity:1;isolation:auto;mix-blend-mode:normal;color-interpolation:sRGB;color-interpolation-filters:linearRGB;solid-color:#000000;solid-opacity:1;fill:none;fill-opacity:1;fill-rule:evenodd;stroke:#000000;stroke-width:2.00000024;stroke-linecap:round;stroke-linejoin:round;stroke-miterlimit:4;stroke-dasharray:none;stroke-dashoffset:0;stroke-opacity:1;color-rendering:auto;image-rendering:auto;shape-rendering:auto;text-rendering:auto;enable-background:accumulate" />
  <path
     transform="matrix(0,-1,-1,0,0,0)"
     d="m -110.13962,-68.234259 a 20.216557,20.216557 0 0 1 15.550372,-1.357547"
     id="path4140-7-3"
     style="color:#000000;clip-rule:nonzero;display:inline;overflow:visible;visibility:visible;opacity:1;isolation:auto;mix-blend-mode:normal;color-interpolation:sRGB;color-interpolation-filters:linearRGB;solid-color:#000000;solid-opacity:1;fill:none;fill-opacity:1;fill-rule:evenodd;stroke:#000000;stroke-width:2.00000024;stroke-linecap:round;stroke-linejoin:round;stroke-miterlimit:4;stroke-dasharray:none;stroke-dashoffset:0;stroke-opacity:1;color-rendering:auto;image-rendering:auto;shape-rendering:auto;text-rendering:auto;enable-background:accumulate" />
  <path
     transform="matrix(0,-1,1,0,0,0)"
     d="m -110.15914,92.802408 a 20.216557,20.216557 0 0 1 15.550369,-1.357547"
     id="path4140-7-3-5"
     style="color:#000000;clip-rule:nonzero;display:inline;overflow:visible;visibility:visible;opacity:1;isolation:auto;mix-blend-mode:normal;color-interpolation:sRGB;color-interpolation-filters:linearRGB;solid-color:#000000;solid-opacity:1;fill:none;fill-opacity:1;fill-rule:evenodd;stroke:#000000;stroke-width:2.00000024;stroke-linecap:round;stroke-linejoin:round;stroke-miterlimit:4;stroke-dasharray:none;stroke-dashoffset:0;stroke-opacity:1;color-rendering:auto;image-rendering:auto;shape-rendering:auto;text-rendering:auto;enable-background:accumulate" />
  <path
     id="path4259-0-6"
     d="m 140.58968,134.88404 0,-10.6044 -113.142797,-0.019 0,10.6044"
     style="fill:none;fill-rule:evenodd;stroke:#000000;stroke-width:2;stroke-linecap:round;stroke-linejoin:round;stroke-miterlimit:4;stroke-dasharray:none;stroke-opacity:1" />
  <path
     id="path4259-0-3"
     d="m 17.129883,213.26774 0.4052,16.3309 65.5428,-0.1194"
     style="fill:none;fill-rule:evenodd;stroke:#000000;stroke-width:2;stroke-linecap:round;stroke-linejoin:round;stroke-miterlimit:4;stroke-dasharray:none;stroke-opacity:1" />
  <path
     d="m 137.24498,350.12464 c 7.8782,-13.314 14.6345,-31.891 18.1348,-47.098 8.9959,-39.083 11.7661,-164.3518 -6.9908,-184.3771 -8.1999,-8.7543 -27.8958,-6.9006 -40.1112,-10.3588 -5.3991,-1.5284 -9.319597,-6.0976 -9.319597,-11.708902 l -1e-4,-14.6044 m -36.8796,-0.019 0,14.6044 c 0.04,5.611202 -3.9205,10.180402 -9.3197,11.708902 -12.2154,3.4582 -27.1039,3.9849 -35.2497,12.7895 -16.1137004,17.4171 -21.5472004,93.464 -9.3822004,112.1352 12.9411004,6.2089 39.5046004,8.4566 69.0469004,12.4608 9.7231,3.8998 15.0805,9.2072 27.912697,15.4266 9.0157,-3.8615 12.4172,-12.1552 14.6615,-21.3625 -3.6871,-4.4243 -9.5226,-8.8486 -22.861497,-13.2729 l 9.272797,-5.0608 -2.9601,-7.3474 c -19.767797,7.0497 -45.220697,9.7539 -72.398797,-0.9632 l 1.7188,-37.1396 c 1.2454,13.1742 2.8011,25.9319 4.0492,38.4407 m 34.2102,-125.124802 c -16.4666,-11.7736 -21.1303,-27.4686 -21.1303,-56.829 l 0,0 c -0.02,-11.0443 5.8622,-21.2577 15.4247,-26.7835001 9.5624,-5.52589996 21.3485,-5.52209996 30.9075,0.01 9.558997,5.5318001 15.434497,15.7489001 15.407797,26.7932001 0,29.3604 -4.6636,45.0554 -21.130197,56.829 m -51.7152,151.496702 c 0.2297,5.6581 0.2998,11.2886 0.149,16.908 -0.8201,30.5587 -3.2413,60.9954 1.1143,92.4476"
     style="fill:none;fill-rule:evenodd;stroke:#cccccc;stroke-width:3;stroke-linecap:round;stroke-linejoin:round;stroke-miterlimit:4;stroke-dasharray:none;stroke-opacity:1"
     id="path4259-6-2-1-8-7-0-5" />
  <path
     style="fill:none;fill-rule:evenodd;stroke:#000000;stroke-width:2;stroke-linecap:round;stroke-linejoin:round;stroke-miterlimit:4;stroke-dasharray:none;stroke-opacity:1"
     d="m 141.23748,240.86434 0,21.1052 -5.5322,5.3634 5.5322,5.3633 0,26.7109"
     id="path4259-0-3-9-8-9" />
</svg>
