<?xml version="1.0" encoding="UTF-8" standalone="no"?>
<svg
   xmlns:dc="http://purl.org/dc/elements/1.1/"
   xmlns:cc="http://creativecommons.org/ns#"
   xmlns:rdf="http://www.w3.org/1999/02/22-rdf-syntax-ns#"
   xmlns:svg="http://www.w3.org/2000/svg"
   xmlns="http://www.w3.org/2000/svg"
   width="32.202747mm"
   height="22.232269mm"
   viewBox="0 0 114.10422 78.775756"
   id="svg5238"
   version="1.1">
  <defs
     id="defs5240" />
  <metadata
     id="metadata5243">
    <rdf:RDF>
      <cc:Work
         rdf:about="">
        <dc:format>image/svg+xml</dc:format>
        <dc:type
           rdf:resource="http://purl.org/dc/dcmitype/StillImage" />
        <dc:title></dc:title>
      </cc:Work>
    </rdf:RDF>
  </metadata>
  <path
     id="path18"
     d="m 44.830647,35.359756 -0.0533,-11.46324 68.304443,-0.0171 0.0223,11.48034"
     style="fill:none;stroke:#000000;stroke-width:2;stroke-linecap:round;stroke-linejoin:round;stroke-miterlimit:4;stroke-dasharray:none" />
  <path
     style="fill:none;fill-rule:evenodd;stroke:#000000;stroke-width:2;stroke-linecap:round;stroke-linejoin:round;stroke-miterlimit:4;stroke-dasharray:none;stroke-opacity:1"
     d="m 23.3837,1.0001 c 1.5167,0 7.1635,0.1034 7.1635,2.838 l 0,18.5052 5.532198,5.3634 -5.532198,5.3633 0,18.505202 c 0,2.7346 -5.6468,2.838 -7.1635,2.838"
     id="path4259-0-3-9-8-9-6-27-6-0-6-0-3" />
  <path
     id="path18-2"
     d="m 15.102317,46.977987 c 2.97518,-3.789673 6.765771,-4.032525 14.406992,-4.032525"
     style="fill:none;stroke:#000000;stroke-width:1.99999988;stroke-linecap:round;stroke-linejoin:round;stroke-miterlimit:4;stroke-dasharray:none" />
  <g
     transform="translate(40.803157,40.781459)"
     id="g15455">
    <path
       style="color:#000000;clip-rule:nonzero;display:inline;overflow:visible;visibility:visible;opacity:1;isolation:auto;mix-blend-mode:normal;color-interpolation:sRGB;color-interpolation-filters:linearRGB;solid-color:#000000;solid-opacity:1;fill:none;fill-opacity:1;fill-rule:evenodd;stroke:#000000;stroke-width:2;stroke-linecap:round;stroke-linejoin:round;stroke-miterlimit:4;stroke-dasharray:none;stroke-dashoffset:0;stroke-opacity:1;color-rendering:auto;image-rendering:auto;shape-rendering:auto;text-rendering:auto;enable-background:accumulate"
       d="M -16.523325,-27.547812 -28.158166,-39.05915 -39.793007,-27.547812"
       id="path6616" />
    <path
       id="path4957"
       d="m -20.880681,-24.006268 3.67e-4,0"
       style="fill:none;fill-rule:evenodd;stroke:#000000;stroke-width:2.99999976;stroke-linecap:round;stroke-linejoin:round;stroke-miterlimit:4;stroke-dasharray:none;stroke-opacity:1" />
    <path
       id="path4957-1"
       d="m -35.462837,-24.006267 3.67e-4,0"
       style="fill:none;fill-rule:evenodd;stroke:#000000;stroke-width:2.99999976;stroke-linecap:round;stroke-linejoin:round;stroke-miterlimit:4;stroke-dasharray:none;stroke-opacity:1" />
  </g>
  <g
     transform="matrix(0,1,1,0,97.655565,61.609163)"
     id="g16157">
    <path
       style="fill:none;fill-rule:evenodd;stroke:#000000;stroke-width:2;stroke-linecap:round;stroke-linejoin:round;stroke-miterlimit:4;stroke-dasharray:none;stroke-opacity:1"
       d="m -10.818137,-5.5750867 7.91631,0"
       id="path4924" />
    <path
       style="fill:none;stroke:#030303;stroke-width:2;stroke-linecap:round;stroke-linejoin:round;stroke-miterlimit:4;stroke-dasharray:none"
       d="m 15.989202,-27.840239 c 0.16929,8.1273 0.38451,16.911129 -0.24995,24.2981793 -0.39127,2.59859 -0.60446,4.57063 -2.30177,6.89168 -1.69732,2.32105 -3.6843495,3.33565 -7.5350895,3.01883 -3.85073,-0.31681 -6.55617005,-2.60597 -7.7653695,-6.21265 -1.20921,-3.60667 -0.73294,-8.05715 -0.88701,-12.0888903 -0.0931,-6.24362 -0.0615,-15.327499 -0.26581,-15.749649"
       id="path4" />
  </g>
  <g
     id="g27614"
     transform="matrix(0.99333859,0,0,0.73807392,54.106896,31.13132)">
    <g
       id="g27621"
       transform="matrix(1.0001012,0,0,0.99922534,-0.00394655,0.00154742)">
      <path
         d="M 44.506494,5.7567453 A 24,9.000001 0 0 1 43.174367,16.877968 24,9.000001 0 0 1 14.035206,19.00582 24,9.000001 0 0 1 1.6723326,8.8846571 24,9.000001 0 0 1 25.001114,2"
         id="path27412"
         style="color:#000000;clip-rule:nonzero;display:inline;overflow:visible;visibility:visible;opacity:1;isolation:auto;mix-blend-mode:normal;color-interpolation:sRGB;color-interpolation-filters:linearRGB;solid-color:#000000;solid-opacity:1;fill:none;fill-opacity:1;fill-rule:evenodd;stroke:#000000;stroke-width:2.33654451;stroke-linecap:round;stroke-linejoin:round;stroke-miterlimit:4;stroke-dasharray:none;stroke-dashoffset:0;stroke-opacity:1;color-rendering:auto;image-rendering:auto;shape-rendering:auto;text-rendering:auto;enable-background:accumulate" />
      <path
         style="display:inline;fill:none;fill-rule:evenodd;stroke:#000000;stroke-width:3.50481653;stroke-linecap:round;stroke-linejoin:miter;stroke-miterlimit:4;stroke-dasharray:none;stroke-opacity:1"
         d="M 39.363744,3.789948 39.36282,3.789565"
         id="path7294-5-3-8-0-6-3" />
      <path
         style="display:inline;fill:none;fill-rule:evenodd;stroke:#000000;stroke-width:3.50481653;stroke-linecap:round;stroke-linejoin:miter;stroke-miterlimit:4;stroke-dasharray:none;stroke-opacity:1"
         d="M 33.480058,2.580783 33.479134,2.5804"
         id="path7294-5-3-8-0-6-3-0" />
    </g>
  </g>
</svg>
