<?xml version="1.0" encoding="UTF-8" standalone="no"?>
<svg
   xmlns:dc="http://purl.org/dc/elements/1.1/"
   xmlns:cc="http://creativecommons.org/ns#"
   xmlns:rdf="http://www.w3.org/1999/02/22-rdf-syntax-ns#"
   xmlns:svg="http://www.w3.org/2000/svg"
   xmlns="http://www.w3.org/2000/svg"
   width="91.632141"
   height="55.997669"
   id="svg2"
   version="1.1">
  <metadata
     id="metadata10">
    <rdf:RDF>
      <cc:Work
         rdf:about="">
        <dc:format>image/svg+xml</dc:format>
        <dc:type
           rdf:resource="http://purl.org/dc/dcmitype/StillImage" />
        <dc:title></dc:title>
      </cc:Work>
    </rdf:RDF>
  </metadata>
  <defs
     id="defs8" />
  <path
     style="fill:none;fill-rule:evenodd;stroke:#000000;stroke-width:1.99999988;stroke-linecap:round;stroke-linejoin:round;stroke-miterlimit:4;stroke-dasharray:none;stroke-opacity:1"
     d="m 46.535094,32.667535 -9.194157,9.194163"
     id="path13718-9-5-9" />
  <path
     style="fill:none;stroke:#000000;stroke-width:3;stroke-linecap:round;stroke-linejoin:round;stroke-miterlimit:4;stroke-dasharray:none"
     d="m 50.57383,28.656518 -0.02772,-0.02772"
     id="path22-6-7-2-35-1" />
  <path
     style="fill:none;stroke:#000000;stroke-width:3;stroke-linecap:round;stroke-linejoin:round;stroke-miterlimit:4;stroke-dasharray:none"
     d="m 54.932334,24.298017 -0.02772,-0.02772"
     id="path22-6-7-2-3-6-2" />
  <path
     style="fill:none;stroke:#000000;stroke-width:3;stroke-linecap:round;stroke-linejoin:round;stroke-miterlimit:4;stroke-dasharray:none"
     d="m 59.290838,19.939514 -0.02772,-0.02772"
     id="path22-6-7-2-3-7-2-7" />
  <g
     id="g6308"
     transform="matrix(0.70710678,0.70710678,-0.70710678,0.70710678,40.950826,11.567981)">
    <path
       id="path4924"
       d="m 1.0142324,23.279392 7.91631,0"
       style="fill:none;fill-rule:evenodd;stroke:#000000;stroke-width:2;stroke-linecap:round;stroke-linejoin:round;stroke-miterlimit:4;stroke-dasharray:none;stroke-opacity:1" />
    <path
       id="path4"
       d="m 27.821572,1.0142394 c 0.16929,8.1273 0.38451,16.9111296 -0.24995,24.2981796 -0.39127,2.59859 -0.60446,4.57063 -2.30177,6.89168 -1.69732,2.32105 -3.68435,3.33565 -7.53509,3.01883 -3.85073,-0.31681 -6.55617,-2.60597 -7.7653696,-6.21265 -1.20921,-3.60667 -0.73294,-8.05715 -0.88701,-12.08889 -0.0931,-6.24362 -0.0615,-15.3274996 -0.26581,-15.7496496"
       style="fill:none;stroke:#030303;stroke-width:2;stroke-linecap:round;stroke-linejoin:round;stroke-miterlimit:4;stroke-dasharray:none" />
  </g>
  <path
     style="fill:none;stroke:#020202;stroke-width:2;stroke-linecap:round;stroke-linejoin:round;stroke-miterlimit:4;stroke-dasharray:none"
     d="m 74.500722,12.74195 c 12.391947,0 16.131419,5.858625 16.131419,11.856482 0,12.830938 -9.816006,22.951917 -16.20119,25.398797 0.389278,-1.870581 0.42155,-27.786102 0.06979,-37.255279 z"
     id="path4-6-7" />
  <path
     id="path4191"
     style="fill:none;fill-opacity:1;stroke:#000000;stroke-width:2;stroke-linecap:round;stroke-linejoin:round;stroke-miterlimit:4;stroke-dasharray:none;stroke-opacity:1"
     d="m 87.866507,17.131167 a 7.0281021,7.0768708 0 0 1 -4.648269,7.512579 7.0281021,7.0768708 0 0 1 -8.294162,-2.931734" />
  <path
     style="fill:none;fill-rule:evenodd;stroke:#000000;stroke-width:2;stroke-linecap:round;stroke-linejoin:miter;stroke-miterlimit:4;stroke-dasharray:none;stroke-opacity:1"
     d="m 74.445229,54.99757 c 12.654469,0 12.654469,0 12.654469,0"
     id="path7294-53-5" />
  <g
     transform="translate(302.07006,-622.42506)"
     id="layer1">
    <path
       id="path35029"
       d="m -294.31876,651.63167 c 2.35875,0 4.2709,-1.91214 4.27091,-4.2709 l 9e-5,-18.56247 5.53211,-5.3633"
       style="opacity:1;fill:none;fill-rule:evenodd;stroke:#000000;stroke-width:2;stroke-linecap:round;stroke-linejoin:round;stroke-miterlimit:4;stroke-dasharray:none;stroke-opacity:1" />
    <path
       id="path35023"
       d="m -290.04784,645.44675 -7.72282,-2.9e-4 c -1.17898,-4e-5 -2.26839,-0.62896 -2.85788,-1.64998 -0.58949,-1.02102 -0.58949,-2.27897 0,-3.29999 0.58949,-1.02102 1.6789,-1.65005 2.85788,-1.65001 l 7.7229,2.7e-4"
       style="opacity:1;fill:none;fill-rule:evenodd;stroke:#000000;stroke-width:2;stroke-linecap:round;stroke-linejoin:round;stroke-miterlimit:4;stroke-dasharray:none;stroke-opacity:1" />
    <path
       id="path12093-6-4-8-3-4-0-0"
       d="m -295.42998,645.44675 8e-5,-6.6"
       style="opacity:1;fill:none;fill-rule:evenodd;stroke:#000000;stroke-width:2;stroke-linecap:round;stroke-linejoin:round;stroke-miterlimit:4;stroke-dasharray:none;stroke-opacity:1" />
  </g>
</svg>
