<?xml version="1.0" encoding="UTF-8" standalone="no"?>
<svg
   xmlns:dc="http://purl.org/dc/elements/1.1/"
   xmlns:cc="http://creativecommons.org/ns#"
   xmlns:rdf="http://www.w3.org/1999/02/22-rdf-syntax-ns#"
   xmlns:svg="http://www.w3.org/2000/svg"
   xmlns="http://www.w3.org/2000/svg"
   version="1.1"
   id="svg2"
   height="49.00227"
   width="67.931816">
  <metadata
     id="metadata10">
    <rdf:RDF>
      <cc:Work
         rdf:about="">
        <dc:format>image/svg+xml</dc:format>
        <dc:type
           rdf:resource="http://purl.org/dc/dcmitype/StillImage" />
        <dc:title></dc:title>
      </cc:Work>
    </rdf:RDF>
  </metadata>
  <defs
     id="defs8" />
  <path
     style="fill:none;stroke:#030303;stroke-width:2;stroke-linecap:round;stroke-linejoin:round;stroke-miterlimit:4;stroke-dasharray:none"
     d="M 49.594757,2.3165147 C 56.574812,15.429864 58.632267,16.979301 66.925401,33.59421 M 65.997604,18.125678 c -1.757925,5.784325 -3.971093,10.069285 -6.335491,15.594549"
     id="path9207-7" />
  <path
     style="fill:none;fill-rule:evenodd;stroke:#000000;stroke-width:3;stroke-linecap:round;stroke-linejoin:round;stroke-miterlimit:4;stroke-dasharray:none;stroke-opacity:1"
     d="m 32.823899,2.5228396 -5.95e-4,0"
     id="path7294-5-2-9-2" />
  <path
     style="fill:none;fill-rule:evenodd;stroke:#999999;stroke-width:2;stroke-linecap:round;stroke-linejoin:round;stroke-miterlimit:4;stroke-dasharray:none;stroke-opacity:1"
     d="m 37.696654,5.0538306 -5.95e-4,0"
     id="path7294-5-2-9-2-2-8" />
  <path
     style="color:#000000;clip-rule:nonzero;display:inline;overflow:visible;visibility:visible;opacity:1;isolation:auto;mix-blend-mode:normal;color-interpolation:sRGB;color-interpolation-filters:linearRGB;solid-color:#000000;solid-opacity:1;fill:none;fill-opacity:1;fill-rule:evenodd;stroke:#000000;stroke-width:2.00000048;stroke-linecap:round;stroke-linejoin:round;stroke-miterlimit:4;stroke-dasharray:none;stroke-dashoffset:0;stroke-opacity:1;color-rendering:auto;image-rendering:auto;shape-rendering:auto;text-rendering:auto;enable-background:accumulate"
     id="path8963"
     d="M 37.696386,5.0540533 A 23.5,23.5 0 0 1 45.691415,34.660987 23.5,23.5 0 0 1 17.599909,46.963762 23.5,23.5 0 0 1 1.2621731,21.010547 23.5,23.5 0 0 1 24.501645,1.0001011" />
  <g
     id="g9154"
     transform="matrix(0.82030212,-0.47331577,0.47360165,0.81980696,-6.8647608,16.229196)">
    <path
       id="path4924-9"
       d="m 17.360303,7.7670286 0,7.9163104"
       style="fill:none;fill-rule:evenodd;stroke:#000000;stroke-width:2.11211681;stroke-linecap:round;stroke-linejoin:round;stroke-miterlimit:4;stroke-dasharray:none;stroke-opacity:1" />
    <path
       id="path4-3"
       d="m 39.625456,34.574369 c -8.1273,0.16929 -16.91113,0.38451 -24.29818,-0.24995 -2.59859,-0.39127 -4.57063,-0.60446 -6.8916802,-2.30177 -2.32105,-1.69732 -3.33565,-3.68435 -3.01883,-7.53509 0.31681,-3.85073 2.60597,-6.55617 6.2126502,-7.76537 3.60667,-1.20921 8.05715,-0.73294 12.08889,-0.88701 6.24362,-0.0931 15.3275,-0.0615 15.74965,-0.26581"
       style="fill:none;stroke:#030303;stroke-width:2.11211681;stroke-linecap:round;stroke-linejoin:round;stroke-miterlimit:4;stroke-dasharray:none" />
  </g>
</svg>
