<?xml version="1.0" encoding="UTF-8" standalone="no"?>
<svg
   xmlns:dc="http://purl.org/dc/elements/1.1/"
   xmlns:cc="http://creativecommons.org/ns#"
   xmlns:rdf="http://www.w3.org/1999/02/22-rdf-syntax-ns#"
   xmlns:svg="http://www.w3.org/2000/svg"
   xmlns="http://www.w3.org/2000/svg"
   version="1.1"
   id="svg2"
   height="75.363342"
   width="55.796265">
  <metadata
     id="metadata10">
    <rdf:RDF>
      <cc:Work
         rdf:about="">
        <dc:format>image/svg+xml</dc:format>
        <dc:type
           rdf:resource="http://purl.org/dc/dcmitype/StillImage" />
        <dc:title></dc:title>
      </cc:Work>
    </rdf:RDF>
  </metadata>
  <defs
     id="defs8" />
  <g
     transform="translate(30.578862,16.177182)"
     id="g8705" />
  <path
     style="fill:none;fill-rule:evenodd;stroke:#000000;stroke-width:2;stroke-linecap:round;stroke-linejoin:round;stroke-miterlimit:4;stroke-dasharray:none;stroke-opacity:1"
     d="m 54.782022,62.070113 -7.91631,0"
     id="path4924" />
  <path
     style="fill:none;stroke:#030303;stroke-width:2;stroke-linecap:round;stroke-linejoin:round;stroke-miterlimit:4;stroke-dasharray:none"
     d="m 27.974682,40.098188 c -0.16929,8.1273 -0.38451,16.91113 0.24995,24.29818 0.39127,2.59859 0.60446,4.57063 2.30177,6.89168 1.69732,2.32105 3.68435,3.33565 7.53509,3.01883 3.85073,-0.31681 6.55617,-2.60597 7.76537,-6.21265 1.20921,-3.60667 0.73294,-8.05715 0.88701,-12.08889 0.0931,-6.24362 0.0615,-15.3275 0.26581,-15.74965"
     id="path4" />
  <path
     style="fill:none;fill-rule:evenodd;stroke:#000000;stroke-width:1.99999988;stroke-linecap:round;stroke-linejoin:round;stroke-miterlimit:4;stroke-dasharray:none;stroke-opacity:1"
     d="m 22.796891,40.098192 0,21.507572"
     id="path4259-0-3-9-8-9-6-27-6-0-6-0-3-3" />
  <path
     style="fill:none;fill-rule:evenodd;stroke:#000000;stroke-width:2;stroke-linecap:round;stroke-linejoin:round;stroke-miterlimit:4;stroke-dasharray:none;stroke-opacity:1"
     d="m 5.8402224,1.0001 c 1.5167,0 7.1634996,0.1034 7.1634996,2.838 l 0,18.5052 5.5322,5.3634 -5.5322,5.3633 0,18.505199 c 0,2.7346 -5.6467996,2.838 -7.1634996,2.838"
     id="path4259-0-3-9-8-9-6-27-6-0-6-0-3" />
  <path
     style="fill:none;stroke:#000000;stroke-width:3;stroke-linecap:round;stroke-linejoin:round;stroke-miterlimit:4;stroke-dasharray:none"
     d="m 1.50015,46.407849 0,-0.0392"
     id="path22-6-7-2" />
  <path
     style="fill:none;stroke:#000000;stroke-width:3;stroke-linecap:round;stroke-linejoin:round;stroke-miterlimit:4;stroke-dasharray:none"
     d="m 7.50075,46.407849 0,-0.0392"
     id="path22-6-7-2-3" />
  <path
     style="fill:none;fill-rule:evenodd;stroke:#000000;stroke-width:1.99999964;stroke-linecap:round;stroke-linejoin:round;stroke-miterlimit:4;stroke-dasharray:none;stroke-opacity:1"
     d="m 46.971432,35.083546 c -6.38673,-2.674794 -12.77346,-2.679746 -19.16019,0"
     id="path4259-0-3-9-8-9-6-27-6-0-6-0-3-3-7-3-1-3" />
  <path
     style="fill:none;fill-rule:evenodd;stroke:#000000;stroke-width:1.99999976;stroke-linecap:round;stroke-linejoin:round;stroke-miterlimit:4;stroke-dasharray:none;stroke-opacity:1"
     d="m 49.064595,30.281549 c -7.799162,-3.208259 -15.598324,-3.214199 -23.397485,0"
     id="path4259-0-3-9-8-9-6-27-6-0-6-0-3-3-7-3-1-3-2" />
</svg>
