<?xml version="1.0" encoding="UTF-8" standalone="no"?>
<!-- Created with Inkscape (http://www.inkscape.org/) -->

<svg
   xmlns:dc="http://purl.org/dc/elements/1.1/"
   xmlns:cc="http://creativecommons.org/ns#"
   xmlns:rdf="http://www.w3.org/1999/02/22-rdf-syntax-ns#"
   xmlns:svg="http://www.w3.org/2000/svg"
   xmlns="http://www.w3.org/2000/svg"
   xmlns:sodipodi="http://sodipodi.sourceforge.net/DTD/sodipodi-0.dtd"
   xmlns:inkscape="http://www.inkscape.org/namespaces/inkscape"
   id="svg2"
   version="1.1"
   inkscape:version="0.91 r13725"
   width="3277.0679"
   height="7032.9243"
   viewBox="0 0 3277.0679 7032.9244"
   sodipodi:docname="body.svg">
  <metadata
     id="metadata8">
    <rdf:RDF>
      <cc:Work
         rdf:about="">
        <dc:format>image/svg+xml</dc:format>
        <dc:type
           rdf:resource="http://purl.org/dc/dcmitype/StillImage" />
        <dc:title></dc:title>
      </cc:Work>
    </rdf:RDF>
  </metadata>
  <defs
     id="defs6" />
  <sodipodi:namedview
     pagecolor="#ffffff"
     bordercolor="#666666"
     borderopacity="1"
     objecttolerance="10"
     gridtolerance="10"
     guidetolerance="10"
     inkscape:pageopacity="0"
     inkscape:pageshadow="2"
     inkscape:window-width="714"
     inkscape:window-height="746"
     id="namedview4"
     showgrid="false"
     inkscape:object-nodes="true"
     inkscape:zoom="0.065453285"
     inkscape:cx="1262.1458"
     inkscape:cy="4567.5299"
     inkscape:window-x="0"
     inkscape:window-y="0"
     inkscape:window-maximized="0"
     inkscape:current-layer="svg2"
     showguides="false"
     fit-margin-top="0"
     fit-margin-left="0"
     fit-margin-right="0"
     fit-margin-bottom="0" />
  <path
     style="color:#000000;clip-rule:nonzero;display:inline;overflow:visible;visibility:visible;opacity:1;isolation:auto;mix-blend-mode:normal;color-interpolation:sRGB;color-interpolation-filters:linearRGB;solid-color:#000000;solid-opacity:1;fill:none;fill-opacity:1;fill-rule:evenodd;stroke:#000000;stroke-width:40.00000381;stroke-linecap:round;stroke-linejoin:round;stroke-miterlimit:4;stroke-dasharray:none;stroke-dashoffset:0;stroke-opacity:1;color-rendering:auto;image-rendering:auto;shape-rendering:auto;text-rendering:auto;enable-background:accumulate"
     id="path4140"
     sodipodi:type="arc"
     sodipodi:cx="1610.3665"
     sodipodi:cy="671.67749"
     sodipodi:rx="429.69577"
     sodipodi:ry="429.69577"
     sodipodi:start="3.4271473"
     sodipodi:end="5.9974836"
     d="m 1198.071,550.63663 a 429.69577,429.69577 0 0 1 412.2639,-308.65491 429.69577,429.69577 0 0 1 412.3092,308.59427"
     sodipodi:open="true" />
  <path
     style="color:#000000;clip-rule:nonzero;display:inline;overflow:visible;visibility:visible;opacity:1;isolation:auto;mix-blend-mode:normal;color-interpolation:sRGB;color-interpolation-filters:linearRGB;solid-color:#000000;solid-opacity:1;fill:none;fill-opacity:1;fill-rule:evenodd;stroke:#000000;stroke-width:40.00000381;stroke-linecap:round;stroke-linejoin:round;stroke-miterlimit:4;stroke-dasharray:none;stroke-dashoffset:0;stroke-opacity:1;color-rendering:auto;image-rendering:auto;shape-rendering:auto;text-rendering:auto;enable-background:accumulate"
     id="path4140-7"
     sodipodi:type="arc"
     sodipodi:cx="1610.3649"
     sodipodi:cy="-1310.3467"
     sodipodi:rx="354.56342"
     sodipodi:ry="354.56342"
     sodipodi:start="3.7413097"
     sodipodi:end="5.6862078"
     d="m 1317.6744,-1510.4654 a 354.56342,354.56342 0 0 1 293.1761,-154.4444 354.56342,354.56342 0 0 1 292.752,155.247"
     transform="scale(1,-1)"
     sodipodi:open="true" />
  <path
     style="color:#000000;clip-rule:nonzero;display:inline;overflow:visible;visibility:visible;opacity:1;isolation:auto;mix-blend-mode:normal;color-interpolation:sRGB;color-interpolation-filters:linearRGB;solid-color:#000000;solid-opacity:1;fill:none;fill-opacity:1;fill-rule:evenodd;stroke:#000000;stroke-width:40.00000381;stroke-linecap:round;stroke-linejoin:round;stroke-miterlimit:4;stroke-dasharray:none;stroke-dashoffset:0;stroke-opacity:1;color-rendering:auto;image-rendering:auto;shape-rendering:auto;text-rendering:auto;enable-background:accumulate"
     id="path4140-7-3"
     sodipodi:type="arc"
     sodipodi:cx="-2014.8613"
     sodipodi:cy="-1006.6881"
     sodipodi:rx="404.33115"
     sodipodi:ry="404.33115"
     sodipodi:start="4.2289556"
     sodipodi:end="5.021664"
     d="m -2202.8033,-1364.6846 a 404.33115,404.33115 0 0 1 311.0075,-27.151"
     transform="matrix(0,-1,-1,0,0,0)"
     sodipodi:open="true" />
  <path
     style="color:#000000;clip-rule:nonzero;display:inline;overflow:visible;visibility:visible;opacity:1;isolation:auto;mix-blend-mode:normal;color-interpolation:sRGB;color-interpolation-filters:linearRGB;solid-color:#000000;solid-opacity:1;fill:none;fill-opacity:1;fill-rule:evenodd;stroke:#000000;stroke-width:40.00000381;stroke-linecap:round;stroke-linejoin:round;stroke-miterlimit:4;stroke-dasharray:none;stroke-dashoffset:0;stroke-opacity:1;color-rendering:auto;image-rendering:auto;shape-rendering:auto;text-rendering:auto;enable-background:accumulate"
     id="path4140-7-3-5"
     sodipodi:type="arc"
     sodipodi:cx="-2015.249"
     sodipodi:cy="2214.0442"
     sodipodi:rx="404.33115"
     sodipodi:ry="404.33115"
     sodipodi:start="4.2289556"
     sodipodi:end="5.021664"
     d="m -2203.191,1856.0477 a 404.33115,404.33115 0 0 1 311.0075,-27.151"
     transform="matrix(0,-1,1,0,0,0)"
     sodipodi:open="true" />
  <path
     style="fill:none;fill-rule:evenodd;stroke:#000000;stroke-width:40;stroke-linecap:round;stroke-linejoin:round;stroke-miterlimit:4;stroke-dasharray:none;stroke-opacity:1"
     d="m 2811.794,2697.6893 0,-212.0882 -2262.85593,-0.3878 0,212.0882"
     id="path4259-0-6"
     inkscape:connector-curvature="0"
     sodipodi:nodetypes="cccc" />
  <g
     id="g4536"
     transform="matrix(1,0,0,-1,-180.81962,8303.6907)">
    <path
       sodipodi:nodetypes="ccc"
       inkscape:connector-curvature="0"
       id="path4259-0-3"
       d="m 523.41814,4038.3265 8.10242,-326.6164 1310.85594,2.3878"
       style="fill:none;fill-rule:evenodd;stroke:#000000;stroke-width:40;stroke-linecap:round;stroke-linejoin:round;stroke-miterlimit:4;stroke-dasharray:none;stroke-opacity:1" />
  </g>
  <path
     id="path4259-6-2-1-8-7-0-5"
     style="fill:none;fill-rule:evenodd;stroke:#cccccc;stroke-width:60;stroke-linecap:round;stroke-linejoin:round;stroke-miterlimit:4;stroke-dasharray:none;stroke-opacity:1"
     d="m 2744.9004,7002.5012 c 157.563,-266.279 292.6887,-637.8206 362.6945,-941.9605 179.9196,-781.6598 235.3235,-3287.0361 -139.8157,-3687.541 -163.9975,-175.0865 -557.9152,-138.0125 -802.2233,-207.1754 -107.983,-30.5697 -186.3931,-121.9524 -186.3931,-234.1791 l -10e-5,-292.0882 m -737.5933,-0.3878 0,292.0882 c 0.7983,112.2239 -78.4099,203.6091 -186.3929,234.1788 -244.30826,69.1629 -542.07864,79.6969 -704.99445,255.7902 -322.273505,348.3407 -430.945236,1869.2801 -187.64393,2242.7028 258.82079,124.1776 790.09149,169.133 1380.93718,249.2154 194.463,77.9966 301.6105,184.1459 558.2553,308.5337 180.3132,-77.23 248.3424,-243.1053 293.2283,-427.2516 -73.7417,-88.4855 -190.4509,-176.971 -457.2299,-265.4565 l 185.4565,-101.2172 -59.2025,-146.9467 c -395.3552,140.9933 -904.4132,195.0776 -1447.97503,-19.2655 l 34.37566,-742.7914 c 24.90775,263.4848 56.0224,518.6385 80.98367,768.8147 M 1415.571,1785.067 C 1086.2393,1549.5964 992.96561,1235.6953 992.96561,648.4871 l 0,0 C 992.57081,427.60196 1110.2092,223.33385 1301.459,112.81721 1492.7087,2.3005795 1728.4294,2.3746115 1919.6097,113.01135 2110.79,223.64812 2228.3,427.99007 2227.7665,648.8749 c 0,587.2082 -93.2737,901.1093 -422.6054,1136.5799 M 770.85715,4815.3888 c 4.59547,113.1635 5.99582,225.7733 2.97989,338.1607 -16.4009,611.174 -64.826,1219.909 22.28738,1848.9517"
     inkscape:connector-curvature="0"
     sodipodi:nodetypes="csssscccsscccccccccccccsscccsc" />
  <path
     sodipodi:nodetypes="ccccc"
     inkscape:connector-curvature="0"
     id="path4259-0-3-9-8-9"
     d="m 2824.7505,4817.2956 0,422.1046 -110.6441,107.2668 110.644,107.2672 1e-4,534.2174"
     style="fill:none;fill-rule:evenodd;stroke:#000000;stroke-width:40;stroke-linecap:round;stroke-linejoin:round;stroke-miterlimit:4;stroke-dasharray:none;stroke-opacity:1" />
</svg>
