<?xml version="1.0" encoding="UTF-8" standalone="no"?>
<svg
   xmlns:dc="http://purl.org/dc/elements/1.1/"
   xmlns:cc="http://creativecommons.org/ns#"
   xmlns:rdf="http://www.w3.org/1999/02/22-rdf-syntax-ns#"
   xmlns:svg="http://www.w3.org/2000/svg"
   xmlns="http://www.w3.org/2000/svg"
   viewBox="0 0 2380 9497.5"
   height="9497.5"
   width="2380"
   version="1.1"
   id="svg2">
  <metadata
     id="metadata8">
    <rdf:RDF>
      <cc:Work
         rdf:about="">
        <dc:format>image/svg+xml</dc:format>
        <dc:type
           rdf:resource="http://purl.org/dc/dcmitype/StillImage" />
        <dc:title></dc:title>
      </cc:Work>
    </rdf:RDF>
  </metadata>
  <defs
     id="defs6" />
  <path
     transform="matrix(0,-1,1,0,0,0)"
     d="m -1256.356,647.95279 a 527.02319,537.63147 0 0 1 393.02102,-179.94845 527.02319,537.63147 0 0 1 393.31825,179.27127"
     id="path4140"
     style="color:#000000;clip-rule:nonzero;display:inline;overflow:visible;visibility:visible;opacity:1;isolation:auto;mix-blend-mode:normal;color-interpolation:sRGB;color-interpolation-filters:linearRGB;solid-color:#000000;solid-opacity:1;fill:none;fill-opacity:1;fill-rule:evenodd;stroke:#000000;stroke-width:40.00000381;stroke-linecap:round;stroke-linejoin:round;stroke-miterlimit:4;stroke-dasharray:none;stroke-dashoffset:0;stroke-opacity:1;color-rendering:auto;image-rendering:auto;shape-rendering:auto;text-rendering:auto;enable-background:accumulate" />
  <path
     id="path4145-3"
     d="m 1339.7617,9301.846 c 0,0 178.5581,-965.8043 236.4463,-1354.489 65.6426,-440.7504 -54.5906,-1732.958 -17.749,-2143.2208 25.5791,-284.845 45.3251,-553.6596 45.3251,-860.0273 0,-178.4085 -39.4276,-375.0955 -36.7295,-529.7803 2.4011,-137.6593 47.4609,-381.5399 47.4609,-698.1983 0,-214.5295 -16.8837,-800.7393 -403.1775,-1455.8158 46.624,-191.787 179.4115,-390.9279 179.4115,-390.9279 0,0 197.2183,54.791 224.16,30.2136 72.2639,-65.9225 249.5009,-360.0439 163.6008,-928.01522 C 1734.0896,677.87486 1652.2171,402.10949 1344.6727,242.09207 1262.4193,199.29508 1083.0493,190.38929 973.59547,190.03565 785.72445,189.42864 606.88509,268.96828 484.35723,408.59227 361.82937,548.21626 306.71306,733.7137 336.97052,915.48795 c 29.8035,179.04705 130.30049,365.18275 222.9666,555.05885 86.31529,176.863 81.94242,384.6415 -2.34536,562.4797 C 471.1,2201.293 115.87292,2705.3349 128.18033,3381.0973 c 8.80126,483.2503 106.30285,465.1992 106.30285,1158.0708 0,188.096 79.23627,409.03 122.88606,1480.0358 9.4881,232.8033 383.39872,1679.4014 383.39872,2091.1359 0,219.7434 -94.30409,888.9997 -155.65545,1191.5062"
     style="fill:none;fill-rule:evenodd;stroke:#cccccc;stroke-width:60;stroke-linecap:round;stroke-linejoin:round;stroke-miterlimit:4;stroke-dasharray:none;stroke-opacity:1" />
  <path
     id="path4254"
     d="m 1180.762,2689.3544 c 113.9821,83.7213 189.6597,209.6282 210.1109,349.5672 20.4512,139.939 -16.0298,282.2371 -101.2858,395.0759 l 0,1116.244"
     style="color:#000000;clip-rule:nonzero;display:inline;overflow:visible;visibility:visible;opacity:1;isolation:auto;mix-blend-mode:normal;color-interpolation:sRGB;color-interpolation-filters:linearRGB;solid-color:#000000;solid-opacity:1;fill:none;fill-opacity:1;fill-rule:evenodd;stroke:#000000;stroke-width:40.00000381;stroke-linecap:round;stroke-linejoin:round;stroke-miterlimit:4;stroke-dasharray:none;stroke-dashoffset:0;stroke-opacity:1;color-rendering:auto;image-rendering:auto;shape-rendering:auto;text-rendering:auto;enable-background:accumulate" />
  <path
     style="fill:none;fill-rule:evenodd;stroke:#000000;stroke-width:40;stroke-linecap:round;stroke-linejoin:round;stroke-miterlimit:4;stroke-dasharray:none;stroke-opacity:1"
     d="m 2110.0774,978.41389 110.6441,107.26681 -110.6441,107.2668"
     id="path4259-0-3-9-8-9-6-27-6" />
  <path
     style="fill:none;fill-rule:evenodd;stroke:#000000;stroke-width:40;stroke-linecap:round;stroke-linejoin:round;stroke-miterlimit:4;stroke-dasharray:none;stroke-opacity:1"
     d="m 2100.7215,1485.6807 -110.6441,107.2668 0,370.1046 c 0,54.6921 -112.9353,56.7604 -143.2712,56.7604"
     id="path4259-0-3-9-8-9-6-27-6-0-6" />
  <path
     style="fill:none;fill-rule:evenodd;stroke:#000000;stroke-width:40;stroke-linecap:round;stroke-linejoin:round;stroke-miterlimit:4;stroke-dasharray:none;stroke-opacity:1"
     d="m 1090.9257,7672.3239 239.2155,353.6954 -74.9298,228.6954"
     id="path4259-0-3-9-8-9-6-27-6-9" />
  <path
     style="fill:none;fill-rule:evenodd;stroke:#000000;stroke-width:40;stroke-linecap:round;stroke-linejoin:round;stroke-miterlimit:4;stroke-dasharray:none;stroke-opacity:1"
     d="m 2100.7215,645.6807 -110.6441,-107.2668 0,-370.1046 c 0,-54.6921 -112.9353,-56.7604 -143.2712,-56.7604"
     id="path4259-0-3-9-8-9-6-27-6-0-6-0" />
  <path
     style="fill:none;fill-rule:evenodd;stroke:#000000;stroke-width:40;stroke-linecap:round;stroke-linejoin:round;stroke-miterlimit:4;stroke-dasharray:none;stroke-opacity:1"
     d="m 1386.8062,631.5489 c 30.3359,0 143.2712,2.0683 143.2712,56.7604 l 0,370.1046 110.6441,107.2668 -110.6441,107.2668 0,370.1046 c 0,54.6921 -112.9353,56.7604 -143.2712,56.7604"
     id="path4259-0-3-9-8-9-6-27-6-0-6-0-3" />
</svg>
