<?xml version="1.0" encoding="UTF-8" standalone="no"?>
<svg
   xmlns:dc="http://purl.org/dc/elements/1.1/"
   xmlns:cc="http://creativecommons.org/ns#"
   xmlns:rdf="http://www.w3.org/1999/02/22-rdf-syntax-ns#"
   xmlns:svg="http://www.w3.org/2000/svg"
   xmlns="http://www.w3.org/2000/svg"
   version="1.1"
   id="svg6600"
   viewBox="0 0 71.823866 47.085328"
   height="13.288526mm"
   width="20.27029mm">
  <defs
     id="defs6602" />
  <metadata
     id="metadata6605">
    <rdf:RDF>
      <cc:Work
         rdf:about="">
        <dc:format>image/svg+xml</dc:format>
        <dc:type
           rdf:resource="http://purl.org/dc/dcmitype/StillImage" />
        <dc:title></dc:title>
      </cc:Work>
    </rdf:RDF>
  </metadata>
  <g
     transform="translate(-369.80235,-432.07175)"
     id="layer1">
    <path
       id="path4-20-5-7"
       d="m 403.76429,450.08855 -0.1,0"
       style="fill:none;stroke:#030303;stroke-width:3;stroke-linecap:round;stroke-linejoin:round;stroke-miterlimit:4;stroke-dasharray:none" />
    <path
       id="path4-20-1"
       d="m 403.76429,443.60327 -0.1,0"
       style="fill:none;stroke:#030303;stroke-width:3;stroke-linecap:round;stroke-linejoin:round;stroke-miterlimit:4;stroke-dasharray:none" />
    <path
       style="fill:none;fill-rule:evenodd;stroke:#000000;stroke-width:2;stroke-linecap:round;stroke-linejoin:round;stroke-miterlimit:4;stroke-dasharray:none;stroke-opacity:1"
       d="m 440.62612,443.06781 0,-9.97816 -69.82367,-0.0179 0,9.97816"
       id="path4259-0-6" />
    <path
       d="m 397.02794,477.97969 c 8.1273,0.16929 16.91113,0.38451 24.29818,-0.24995 2.59859,-0.39127 4.57063,-0.60446 6.89168,-2.30177 2.32105,-1.69732 3.33565,-3.68435 3.01883,-7.53509 -0.31681,-3.85073 -2.60597,-6.55617 -6.21265,-7.76537 -3.60667,-1.20921 -8.05715,-0.73294 -12.08889,-0.88701 -6.24362,-0.0931 -15.3275,-0.0615 -15.74965,-0.26581 m 22.11295,-7.80234 -0.29873,7.91631"
       style="fill:none;stroke:#030303;stroke-width:2;stroke-linecap:round;stroke-linejoin:round;stroke-miterlimit:4;stroke-dasharray:none"
       id="path4" />
  </g>
</svg>
