<?xml version="1.0" encoding="UTF-8" standalone="no"?>
<svg
   xmlns:dc="http://purl.org/dc/elements/1.1/"
   xmlns:cc="http://creativecommons.org/ns#"
   xmlns:rdf="http://www.w3.org/1999/02/22-rdf-syntax-ns#"
   xmlns:svg="http://www.w3.org/2000/svg"
   xmlns="http://www.w3.org/2000/svg"
   width="1521.5944"
   height="889.24554"
   id="svg2"
   version="1.1">
  <metadata
     id="metadata10">
    <rdf:RDF>
      <cc:Work
         rdf:about="">
        <dc:format>image/svg+xml</dc:format>
        <dc:type
           rdf:resource="http://purl.org/dc/dcmitype/StillImage" />
        <dc:title></dc:title>
      </cc:Work>
    </rdf:RDF>
  </metadata>
  <defs
     id="defs8" />
  <path
     d="m 553.30555,20.284788 c 3.38582,162.546022 7.69029,338.222522 -4.99892,485.963622 -7.82547,51.97171 -12.08913,91.41254 -46.03552,137.83357 -33.9464,46.42104 -73.68693,66.7131 -150.70162,60.37671 C 274.5548,698.12232 220.44596,652.33916 196.26191,580.2057 172.07786,508.07225 181.60328,419.06266 178.52175,338.42779 176.65884,213.5555 177.29162,31.877763 173.20554,23.434788 M 20.277886,869.18115 C 219.81844,824.06712 179.03507,606.5788 179.03507,452.57095"
     style="fill:none;stroke:#000000;stroke-width:40;stroke-linecap:round;stroke-linejoin:round;stroke-miterlimit:4;stroke-dasharray:none"
     id="path4" />
  <path
     style="fill:none;stroke:#020202;stroke-width:40;stroke-linecap:round;stroke-linejoin:round;stroke-miterlimit:4;stroke-dasharray:none"
     d="m 1501.5943,329.89852 c 0,278.77605 -130.8906,362.90135 -264.8919,362.90135 -286.66249,0 -512.78055,-220.82636 -567.44735,-364.47091 41.7915,8.75739 620.78345,9.48343 832.33925,1.56956 z"
     id="path4-6-7" />
  <g
     id="g7334">
    <path
       style="fill:none;fill-rule:evenodd;stroke:#000000;stroke-width:40;stroke-linecap:round;stroke-linejoin:miter;stroke-miterlimit:4;stroke-dasharray:none;stroke-opacity:1"
       d="m 234.55476,815.5938 c 1155.89944,0 1155.89944,0 1155.89944,0"
       id="path7294-5" />
    <path
       style="fill:none;fill-rule:evenodd;stroke:#000000;stroke-width:40;stroke-linecap:round;stroke-linejoin:miter;stroke-miterlimit:4;stroke-dasharray:none;stroke-opacity:1"
       d="m 234.55476,815.5938 c 1155.89944,0 1155.89944,0 1155.89944,0"
       id="path7294" />
    <circle
       style="color:#000000;clip-rule:nonzero;display:inline;overflow:visible;visibility:visible;opacity:1;isolation:auto;mix-blend-mode:normal;color-interpolation:sRGB;color-interpolation-filters:linearRGB;solid-color:#000000;solid-opacity:1;fill:#000000;fill-opacity:1;fill-rule:evenodd;stroke:#000000;stroke-width:0;stroke-linecap:round;stroke-linejoin:round;stroke-miterlimit:4;stroke-dasharray:none;stroke-dashoffset:0;stroke-opacity:1;color-rendering:auto;image-rendering:auto;shape-rendering:auto;text-rendering:auto;enable-background:accumulate"
       id="path7296-9"
       cx="1485.5055"
       cy="815.59161"
       r="24.999994" />
  </g>
</svg>
