<?xml version="1.0" encoding="UTF-8" standalone="no"?>
<svg
   xmlns:dc="http://purl.org/dc/elements/1.1/"
   xmlns:cc="http://creativecommons.org/ns#"
   xmlns:rdf="http://www.w3.org/1999/02/22-rdf-syntax-ns#"
   xmlns:svg="http://www.w3.org/2000/svg"
   xmlns="http://www.w3.org/2000/svg"
   version="1.1"
   id="svg2"
   height="47.365597"
   width="76.079712">
  <metadata
     id="metadata10">
    <rdf:RDF>
      <cc:Work
         rdf:about="">
        <dc:format>image/svg+xml</dc:format>
        <dc:type
           rdf:resource="http://purl.org/dc/dcmitype/StillImage" />
        <dc:title></dc:title>
      </cc:Work>
    </rdf:RDF>
  </metadata>
  <defs
     id="defs8" />
  <ellipse
     ry="1.4999945"
     rx="1.499994"
     style="color:#000000;clip-rule:nonzero;display:inline;overflow:visible;visibility:visible;opacity:1;isolation:auto;mix-blend-mode:normal;color-interpolation:sRGB;color-interpolation-filters:linearRGB;solid-color:#000000;solid-opacity:1;fill:#000000;fill-opacity:1;fill-rule:evenodd;stroke:#000000;stroke-width:0;stroke-linecap:round;stroke-linejoin:round;stroke-miterlimit:4;stroke-dasharray:none;stroke-dashoffset:0;stroke-opacity:1;color-rendering:auto;image-rendering:auto;shape-rendering:auto;text-rendering:auto;enable-background:accumulate"
     id="path7296-9-3-6"
     cx="40.617397"
     cy="45.865597" />
  <ellipse
     ry="1.4999945"
     rx="1.499994"
     style="color:#000000;clip-rule:nonzero;display:inline;overflow:visible;visibility:visible;opacity:1;isolation:auto;mix-blend-mode:normal;color-interpolation:sRGB;color-interpolation-filters:linearRGB;solid-color:#000000;solid-opacity:1;fill:#000000;fill-opacity:1;fill-rule:evenodd;stroke:#000000;stroke-width:0;stroke-linecap:round;stroke-linejoin:round;stroke-miterlimit:4;stroke-dasharray:none;stroke-dashoffset:0;stroke-opacity:1;color-rendering:auto;image-rendering:auto;shape-rendering:auto;text-rendering:auto;enable-background:accumulate"
     id="path7296-9-3"
     cx="74.275299"
     cy="40.779583" />
  <path
     id="path4"
     style="fill:none;stroke:#cccccc;stroke-width:2;stroke-linecap:round;stroke-linejoin:round;stroke-miterlimit:4;stroke-dasharray:none"
     d="m 27.665273,1.0142394 c 0.16929,8.1273 0.38451,16.9111296 -0.24995,24.2981796 -0.39127,2.59859 -0.60445,4.57063 -2.30177,6.89168 -1.69732,2.32106 -3.68435,3.33566 -7.53508,3.01884 -3.85074,-0.31682 -6.55618,-2.60598 -7.7653787,-6.21265 -1.2092,-3.60667 -0.73293,-8.05715 -0.88701,-12.0889 -0.0932,-6.24361 -0.0615,-15.3274996 -0.26581,-15.7496496 m -7.64638,42.2873196 c 9.9770187,-2.2557 7.93786,-13.13012 7.93786,-20.83051" />
  <path
     id="path4-6-7"
     d="m 75.079713,16.494929 c 0,13.9388 -6.54453,18.14507 -13.2446,18.14507 -14.333119,0 -25.639029,-11.04132 -28.372369,-18.22355 2.08958,0.43787 31.039179,0.47417 41.616969,0.0785 z"
     style="fill:none;stroke:#cccccc;stroke-width:2;stroke-linecap:round;stroke-linejoin:round;stroke-miterlimit:4;stroke-dasharray:none" />
  <path
     style="fill:none;fill-rule:evenodd;stroke:#000000;stroke-width:2;stroke-linecap:round;stroke-linejoin:miter;stroke-miterlimit:4;stroke-dasharray:none;stroke-opacity:1"
     d="m 11.727733,40.779689 c 57.79497,0 57.79497,0 57.79497,0"
     id="path7294-5" />
  <path
     style="fill:none;fill-rule:evenodd;stroke:#000000;stroke-width:2;stroke-linecap:round;stroke-linejoin:miter;stroke-miterlimit:4;stroke-dasharray:none;stroke-opacity:1"
     d="m 11.727733,40.779689 c 57.79497,0 57.79497,0 57.79497,0"
     id="path7294" />
</svg>
