<?xml version="1.0" encoding="UTF-8" standalone="no"?>
<!-- Created with Inkscape (http://www.inkscape.org/) -->

<svg
   xmlns:dc="http://purl.org/dc/elements/1.1/"
   xmlns:cc="http://creativecommons.org/ns#"
   xmlns:rdf="http://www.w3.org/1999/02/22-rdf-syntax-ns#"
   xmlns:svg="http://www.w3.org/2000/svg"
   xmlns="http://www.w3.org/2000/svg"
   version="1.1"
   width="100%"
   height="100%"
   viewBox="0 -200 1000 1000"
   id="svg3013">
  <metadata
     id="metadata3023">
    <rdf:RDF>
      <cc:Work
         rdf:about="">
        <dc:format>image/svg+xml</dc:format>
        <dc:type
           rdf:resource="http://purl.org/dc/dcmitype/StillImage" />
        <dc:title></dc:title>
      </cc:Work>
    </rdf:RDF>
  </metadata>
  <defs
     id="defs3021" />
  <g
     transform="matrix(1,0,0,-1,0,800)"
     id="g3015">
    <path
       d="M 481,594 Q 481,541 442.5,502.5 404,464 351,464 307,464 263,510 230,467 169,464 116,462 77.5,500.5 39,539 39,594 q 0,54 38,92 38,38 92,38 v -44 q -36,0 -61,-25 -25,-25 -25,-61 0,-36 25,-61.5 25,-25.5 60,-24.5 52,2 89,89 55,-89 94,-89 35,0 60.5,25.5 Q 437,559 437,594 437,629 411.5,654.5 386,680 351,680 v 44 q 53,0 91.5,-38.5 Q 481,647 481,594 z"
       id="path3017"
       style="fill:currentColor" />
  </g>
</svg>
