<?xml version="1.0" encoding="UTF-8" standalone="no"?>
<!-- Created with Inkscape (http://www.inkscape.org/) -->

<svg
   xmlns:dc="http://purl.org/dc/elements/1.1/"
   xmlns:cc="http://creativecommons.org/ns#"
   xmlns:rdf="http://www.w3.org/1999/02/22-rdf-syntax-ns#"
   xmlns:svg="http://www.w3.org/2000/svg"
   xmlns="http://www.w3.org/2000/svg"
   version="1.1"
   width="100%"
   height="100%"
   viewBox="0 -200 1000 1000"
   id="svg3037">
  <metadata
     id="metadata3047">
    <rdf:RDF>
      <cc:Work
         rdf:about="">
        <dc:format>image/svg+xml</dc:format>
        <dc:type
           rdf:resource="http://purl.org/dc/dcmitype/StillImage" />
        <dc:title></dc:title>
      </cc:Work>
    </rdf:RDF>
  </metadata>
  <defs
     id="defs3045" />
  <g
     transform="matrix(1,0,0,-1,0,800)"
     id="g3039">
    <path
       d="M 490,1 H 369 V 300 H 128 V 1 H 6 V 46 H 83 V 300 H 6 v 45 h 77 q 7,68 20,157 26,98 107,119 37,10 74,0 80,-21 110,-116 18,-57 20,-160 h 76 V 300 H 414 V 46 h 76 V 1 z M 369,345 q 3,132 -49,194 -15,22 -45.5,33.5 Q 244,584 226,576 192,561 176,538 125,465 128,345 h 241 z"
       id="path3041"
       style="fill:currentColor" />
  </g>
</svg>
