<?xml version="1.0" encoding="UTF-8" standalone="no"?>
<!-- Created with Inkscape (http://www.inkscape.org/) -->

<svg
   xmlns:dc="http://purl.org/dc/elements/1.1/"
   xmlns:cc="http://creativecommons.org/ns#"
   xmlns:rdf="http://www.w3.org/1999/02/22-rdf-syntax-ns#"
   xmlns:svg="http://www.w3.org/2000/svg"
   xmlns="http://www.w3.org/2000/svg"
   version="1.1"
   width="49.5"
   height="67.200821"
   viewBox="0 -200 495.00001 672.00821"
   id="svg3049">
  <metadata
     id="metadata3059">
    <rdf:RDF>
      <cc:Work
         rdf:about="">
        <dc:format>image/svg+xml</dc:format>
        <dc:type
           rdf:resource="http://purl.org/dc/dcmitype/StillImage" />
        <dc:title></dc:title>
      </cc:Work>
    </rdf:RDF>
  </metadata>
  <defs
     id="defs3057" />
  <g
     transform="matrix(1,0,0,-1,-10,477.99999)"
     id="g3003">
    <path
       d="m 251,678 q 51,-82 73,-85 l 127,-20 q 43,-7 48.5,-10 5.5,-3 5.5,-34 v -86 h -49 v 86 q 0,3 -5,4 l -127,20 q -38,6 -71,39 -37,-34 -68,-39 L 63,533 q -5,-1 -5,-4 V 443 H 10 v 86 q 0,22 9,30 9,8 44,14 l 122,20 q 22,4 66,85 z"
       id="path3005"
       style="fill:currentColor" />
  </g>
</svg>
