<?xml version="1.0" encoding="UTF-8" standalone="no"?>
<!-- Created with Inkscape (http://www.inkscape.org/) -->

<svg
   xmlns:dc="http://purl.org/dc/elements/1.1/"
   xmlns:cc="http://creativecommons.org/ns#"
   xmlns:rdf="http://www.w3.org/1999/02/22-rdf-syntax-ns#"
   xmlns:svg="http://www.w3.org/2000/svg"
   xmlns="http://www.w3.org/2000/svg"
   version="1.1"
   width="100"
   height="100"
   viewBox="0 -200 1000 1000"
   id="svg3037">
  <metadata
     id="metadata3047">
    <rdf:RDF>
      <cc:Work
         rdf:about="">
        <dc:format>image/svg+xml</dc:format>
        <dc:type
           rdf:resource="http://purl.org/dc/dcmitype/StillImage" />
        <dc:title></dc:title>
      </cc:Work>
    </rdf:RDF>
  </metadata>
  <defs
     id="defs3045" />
  <g
     transform="matrix(1,0,0,-1,0,800)"
     id="g3039">
    <path
       d="M 469,290 Q 469,145 453,95 421,-4 313,-4 v 44 q 60,0 87,36.5 27,36.5 27,126.5 0,10 -1,44 -1,34 -1,43 0,9 1,43.5 1,34.5 1,45.5 0,89 -28,127 -26,35 -86,35 v 44 q 108,0 140,-99 16,-50 16,-196 z M 172,-4 Q 64,-4 32,95 16,145 16,290 q 0,146 16,196 32,99 140,99 V 541 Q 112,541 86,506 58,468 58,379 58,368 59,333.5 60,299 60,290 60,281 59,247 58,213 58,203 58,113 85,76.5 112,40 172,40 V -4 z"
       id="path3041"
       style="fill:currentColor" />
  </g>
</svg>
