<?xml version="1.0" encoding="UTF-8" standalone="no"?>
<!-- Created with Inkscape (http://www.inkscape.org/) -->

<svg
   xmlns:dc="http://purl.org/dc/elements/1.1/"
   xmlns:cc="http://creativecommons.org/ns#"
   xmlns:rdf="http://www.w3.org/1999/02/22-rdf-syntax-ns#"
   xmlns:svg="http://www.w3.org/2000/svg"
   xmlns="http://www.w3.org/2000/svg"
   version="1.1"
   width="38.5"
   height="38.5"
   viewBox="0 -200 385 385"
   id="svg3037">
  <metadata
     id="metadata3047">
    <rdf:RDF>
      <cc:Work
         rdf:about="">
        <dc:format>image/svg+xml</dc:format>
        <dc:type
           rdf:resource="http://purl.org/dc/dcmitype/StillImage" />
        <dc:title></dc:title>
      </cc:Work>
    </rdf:RDF>
  </metadata>
  <defs
     id="defs3045" />
  <g
     transform="matrix(1,0,0,-1,-32,184)"
     id="g3039">
    <path
       d="m 417,273 h -44 q 0,67 -149,67 Q 76,340 76,273 H 32 q 0,49 52,80 52,31 140,31 87,0 140,-31 53,-31 53,-80 z m 0,-162 Q 417,62 364,30.5 311,-1 224,-1 137,-1 84.5,30.5 32,62 32,111 h 44 q 0,-68 148,-68 149,0 149,68 h 44 z"
       id="path3041"
       style="fill:currentColor" />
  </g>
</svg>
