<?xml version="1.0" encoding="UTF-8" standalone="no"?>
<!-- Created with Inkscape (http://www.inkscape.org/) -->

<svg
   xmlns:dc="http://purl.org/dc/elements/1.1/"
   xmlns:cc="http://creativecommons.org/ns#"
   xmlns:rdf="http://www.w3.org/1999/02/22-rdf-syntax-ns#"
   xmlns:svg="http://www.w3.org/2000/svg"
   xmlns="http://www.w3.org/2000/svg"
   version="1.1"
   width="22.6875"
   height="67"
   viewBox="0 -200 226.875 670"
   id="svg3049">
  <metadata
     id="metadata3059">
    <rdf:RDF>
      <cc:Work
         rdf:about="">
        <dc:format>image/svg+xml</dc:format>
        <dc:type
           rdf:resource="http://purl.org/dc/dcmitype/StillImage" />
        <dc:title></dc:title>
      </cc:Work>
    </rdf:RDF>
  </metadata>
  <defs
     id="defs3057" />
  <path
     d="m 113.125,-200.00499 c -30.666666,0 -57.354167,11.125 -79.6875,33.125 C 11.104167,-144.87999 0,-118.21333 0,-86.88 0,-55.54667 11.125,-28.90083 33.125,-6.5674997 55.125,15.76583 81.791667,26.87 113.125,26.87 c 31.33333,0 57.97917,-11.10417 80.3125,-33.4374997 C 215.77083,-28.90083 226.875,-55.54667 226.875,-86.88 c 0,-30.66666 -11.10417,-57.35416 -33.4375,-79.68749 -22.33333,-22.33334 -48.97917,-33.4375 -80.3125,-33.4375 z m 0,44.0625 c 19.33333,0 35.70833,6.64583 49.375,20.3125 13.66667,13.66666 20.625,30.08333 20.625,48.74999 0,19.33333 -6.95833,35.70833 -20.625,49.375 -13.66667,13.66667 -30.04167,20.625 -49.375,20.625 -19.333333,0 -35.729167,-6.95833 -49.0625,-20.625 -13.333333,-13.66667 -20,-30.04167 -20,-49.375 0,-19.33333 6.645834,-35.72916 20.3125,-49.06249 13.666666,-13.33334 30.083334,-20 48.75,-20 z"
     id="path3041"
     style="fill:currentColor" />
</svg>
