<?xml version="1.0" encoding="UTF-8" standalone="no"?>
<!-- Created with Inkscape (http://www.inkscape.org/) -->

<svg
   xmlns:dc="http://purl.org/dc/elements/1.1/"
   xmlns:cc="http://creativecommons.org/ns#"
   xmlns:rdf="http://www.w3.org/1999/02/22-rdf-syntax-ns#"
   xmlns:svg="http://www.w3.org/2000/svg"
   xmlns="http://www.w3.org/2000/svg"
   version="1.1"
   width="48.299999"
   height="67"
   viewBox="0 -200 483 670"
   id="svg3049">
  <metadata
     id="metadata3059">
    <rdf:RDF>
      <cc:Work
         rdf:about="">
        <dc:format>image/svg+xml</dc:format>
        <dc:type
           rdf:resource="http://purl.org/dc/dcmitype/StillImage" />
        <dc:title></dc:title>
      </cc:Work>
    </rdf:RDF>
  </metadata>
  <defs
     id="defs3057" />
  <path
     d="m 483,-87 q 0,47 -33.5,80.5 Q 416,27 369,27 323,27 290,-6.5 257,-40 257,-87 q 0,-47 33,-80 33,-33 79,-33 47,0 80.5,33 33.5,33 33.5,80 z m -256,0 q 0,47 -33.5,80.5 Q 160,27 113,27 66,27 33,-6.5 0,-40 0,-87 q 0,-47 33.5,-80 33.5,-33 79.5,-33 47,0 80.5,33.5 Q 227,-133 227,-87 z m 212,0 q 0,-29 -20.5,-49 -20.5,-20 -49.5,-20 -28,0 -48,20 -20,20 -20,49 0,29 20,49.5 20,20.5 48,20.5 29,0 49.5,-20.5 Q 439,-58 439,-87 z m -256,0 q 0,-28 -20.5,-48.5 Q 142,-156 113,-156 q -28,0 -48.5,20 -20.5,20 -20.5,49 0,29 20,49.5 20,20.5 49,20.5 29,0 49.5,-20.5 Q 183,-58 183,-87 z"
     id="path3041"
     style="fill:currentColor" />
</svg>
