<?xml version="1.0" encoding="UTF-8" standalone="no"?>
<!-- Created with Inkscape (http://www.inkscape.org/) -->

<svg
   xmlns:dc="http://purl.org/dc/elements/1.1/"
   xmlns:cc="http://creativecommons.org/ns#"
   xmlns:rdf="http://www.w3.org/1999/02/22-rdf-syntax-ns#"
   xmlns:svg="http://www.w3.org/2000/svg"
   xmlns="http://www.w3.org/2000/svg"
   version="1.1"
   width="100"
   height="100"
   viewBox="0 -200 1000 1000"
   id="svg3037">
  <metadata
     id="metadata3047">
    <rdf:RDF>
      <cc:Work
         rdf:about="">
        <dc:format>image/svg+xml</dc:format>
        <dc:type
           rdf:resource="http://purl.org/dc/dcmitype/StillImage" />
        <dc:title></dc:title>
      </cc:Work>
    </rdf:RDF>
  </metadata>
  <defs
     id="defs3045" />
  <g
     transform="matrix(1,0,0,-1,0,800)"
     id="g3039">
    <path
       d="M 491,561 Q 491,514 457.5,480.5 424,447 377,447 q -46,0 -79,33.5 -33,33.5 -33,80.5 0,47 33,80 33,33 79,33 47,0 80.5,-33 33.5,-33 33.5,-80 z m -256,0 Q 235,514 201.5,480.5 168,447 121,447 74,447 41,480.5 8,514 8,561 q 0,47 33.5,80 33.5,33 79.5,33 47,0 80.5,-33.5 Q 235,607 235,561 z m 212,0 q 0,29 -20.5,49 -20.5,20 -49.5,20 -28,0 -48,-20 -20,-20 -20,-49 0,-29 20,-49.5 20,-20.5 48,-20.5 29,0 49.5,20.5 Q 447,532 447,561 z m -256,0 q 0,28 -20.5,48.5 Q 150,630 121,630 93,630 72.5,610 52,590 52,561 52,532 72,511.5 92,491 121,491 q 29,0 49.5,20.5 Q 191,532 191,561 z"
       id="path3041"
       style="fill:currentColor" />
  </g>
</svg>
