<?xml version="1.0" encoding="UTF-8" standalone="no"?>
<!-- Created with Inkscape (http://www.inkscape.org/) -->

<svg
   xmlns:dc="http://purl.org/dc/elements/1.1/"
   xmlns:cc="http://creativecommons.org/ns#"
   xmlns:rdf="http://www.w3.org/1999/02/22-rdf-syntax-ns#"
   xmlns:svg="http://www.w3.org/2000/svg"
   xmlns="http://www.w3.org/2000/svg"
   version="1.1"
   width="22.6875"
   height="67.21875"
   viewBox="0 -200 226.875 672.1875"
   id="svg3049">
  <metadata
     id="metadata3059">
    <rdf:RDF>
      <cc:Work
         rdf:about="">
        <dc:format>image/svg+xml</dc:format>
        <dc:type
           rdf:resource="http://purl.org/dc/dcmitype/StillImage" />
        <dc:title></dc:title>
      </cc:Work>
    </rdf:RDF>
  </metadata>
  <defs
     id="defs3057" />
  <path
     d="m 113.125,-200 c -30.666666,0 -57.354167,11.125 -79.6875,33.125 C 11.104167,-144.875 0,-118.20834 0,-86.875005 c 0,31.33333 11.125,57.97917 33.125,80.3125003 22,22.3333297 48.666667,33.4374997 80,33.4374997 31.33333,0 57.97917,-11.10417 80.3125,-33.4374997 22.33333,-22.3333303 33.4375,-48.9791703 33.4375,-80.3125003 0,-30.666665 -11.10417,-57.354165 -33.4375,-79.687495 C 171.10417,-188.89584 144.45833,-200 113.125,-200 z m 0,44.0625 c 19.33333,0 35.70833,6.64583 49.375,20.3125 13.66667,13.66666 20.625,30.08333 20.625,48.749995 0,19.33333 -6.95833,35.70833 -20.625,49.375 -13.66667,13.66667 -30.04167,20.625 -49.375,20.625 -19.333333,0 -35.729167,-6.95833 -49.0625,-20.625 -13.333333,-13.66667 -20,-30.04167 -20,-49.375 0,-19.333335 6.645834,-35.729165 20.3125,-49.062495 13.666666,-13.33334 30.083334,-20 48.75,-20 z"
     id="path3041"
     style="fill:currentColor" />
</svg>
