<?xml version="1.0" encoding="UTF-8" standalone="no"?>
<!-- Created with Inkscape (http://www.inkscape.org/) -->

<svg
   xmlns:dc="http://purl.org/dc/elements/1.1/"
   xmlns:cc="http://creativecommons.org/ns#"
   xmlns:rdf="http://www.w3.org/1999/02/22-rdf-syntax-ns#"
   xmlns:svg="http://www.w3.org/2000/svg"
   xmlns="http://www.w3.org/2000/svg"
   version="1.1"
   width="19.299999"
   height="57.5"
   viewBox="0 -200 192.99999 575"
   id="svg3013">
  <metadata
     id="metadata3023">
    <rdf:RDF>
      <cc:Work
         rdf:about="">
        <dc:format>image/svg+xml</dc:format>
        <dc:type
           rdf:resource="http://purl.org/dc/dcmitype/StillImage" />
        <dc:title></dc:title>
      </cc:Work>
    </rdf:RDF>
  </metadata>
  <defs
     id="defs3021" />
  <g
     transform="matrix(1,0,0,-1,-173,378)"
     id="g3015">
    <path
       d="m 366,292 q -15,-13 -43,-22 -17,-5 -17,-19 0,-28 -2,-92 Q 302,82 303,68 307,32 277,17.5 247,3 173,3 v 39 q 88,0 86,23 -1,13 1,92 l 2,94 q 0,29 25,40 -20,15 -20,37 0,9 -1,83 l -2,97 q 0,19 -32,24 -13,2 -59,2 v 44 q 82,0 108.5,-14 26.5,-14 26.5,-56 0,-23 2,-97 l 1,-82 q 0,-9 14,-15 24,-11 41,-22 z"
       id="path3017"
       style="fill:currentColor" />
  </g>
</svg>
