<?xml version="1.0" encoding="UTF-8" standalone="no"?>
<!-- Created with Inkscape (http://www.inkscape.org/) -->

<svg
   xmlns:dc="http://purl.org/dc/elements/1.1/"
   xmlns:cc="http://creativecommons.org/ns#"
   xmlns:rdf="http://www.w3.org/1999/02/22-rdf-syntax-ns#"
   xmlns:svg="http://www.w3.org/2000/svg"
   xmlns="http://www.w3.org/2000/svg"
   version="1.1"
   width="42.02"
   height="67"
   viewBox="0 -200 420.20001 670"
   id="svg2989">
  <metadata
     id="metadata2999">
    <rdf:RDF>
      <cc:Work
         rdf:about="">
        <dc:format>image/svg+xml</dc:format>
        <dc:type
           rdf:resource="http://purl.org/dc/dcmitype/StillImage" />
        <dc:title></dc:title>
      </cc:Work>
    </rdf:RDF>
  </metadata>
  <defs
     id="defs2997">
    <clipPath
       id="clipPath7764">
      <path
         d="m -2.6293944e-6,-180.49995 413.4999926293944,0 0,640 -413.4999926293944,0 z"
         id="path7766"
         style="opacity:0.5;fill:#ffff00;fill-opacity:1;stroke:none" />
    </clipPath>
    <clipPath
       id="clipPath4565-5-9">
      <path
         d="M -3.2836914e-6,-199.99998 420.3,-199.99998 l 0,639.99999 -420.3000032836914,0 z"
         id="path4567-6-1"
         style="opacity:0.5;fill:#ffff00;fill-opacity:1;stroke:none" />
    </clipPath>
    <clipPath
       id="clipPath4565-5">
      <path
         d="M -3.2836914e-6,-199.99998 420.3,-199.99998 l 0,639.99999 -420.3000032836914,0 z"
         id="path4567-6"
         style="opacity:0.5;fill:#ffff00;fill-opacity:1;stroke:none" />
    </clipPath>
    <clipPath
       id="clipPath4565">
      <path
         d="M -3.2836914e-6,-199.99998 420.3,-199.99998 l 0,639.99999 -420.3000032836914,0 z"
         id="path4567"
         style="opacity:0.5;fill:#ffff00;fill-opacity:1;stroke:none" />
    </clipPath>
    <clipPath
       id="clipPath4569">
      <path
         d="M -3.2836914e-6,-199.99998 420.3,-199.99998 l 0,639.99999 -420.3000032836914,0 z"
         id="path4571"
         style="opacity:0.5;fill:#ffff00;fill-opacity:1;stroke:none" />
    </clipPath>
    <clipPath
       id="clipPath4581">
      <path
         d="M -3.2836914e-6,-199.99998 420.3,-199.99998 l 0,639.99999 -420.3000032836914,0 z"
         id="path4583"
         style="opacity:0.5;fill:#ffff00;fill-opacity:1;stroke:none" />
    </clipPath>
    <clipPath
       id="clipPath4565-6">
      <path
         d="M -3.2836914e-6,-199.99998 420.3,-199.99998 l 0,639.99999 -420.3000032836914,0 z"
         id="path4567-0"
         style="opacity:0.5;fill:#ffff00;fill-opacity:1;stroke:none" />
    </clipPath>
    <clipPath
       id="clipPath4581-6-2">
      <path
         d="M -3.2836914e-6,-199.99998 420.3,-199.99998 l 0,639.99999 -420.3000032836914,0 z"
         id="path4583-1-0"
         style="opacity:0.5;fill:#ffff00;fill-opacity:1;stroke:none" />
    </clipPath>
    <clipPath
       id="clipPath4569-6-2">
      <path
         d="M -3.2836914e-6,-199.99998 420.3,-199.99998 l 0,639.99999 -420.3000032836914,0 z"
         id="path4571-2-3"
         style="opacity:0.5;fill:#ffff00;fill-opacity:1;stroke:none" />
    </clipPath>
    <clipPath
       id="clipPath4581-6-22">
      <path
         d="M -3.2836914e-6,-199.99998 420.3,-199.99998 l 0,639.99999 -420.3000032836914,0 z"
         id="path4583-1-8"
         style="opacity:0.5;fill:#ffff00;fill-opacity:1;stroke:none" />
    </clipPath>
    <clipPath
       id="clipPath4569-6-9">
      <path
         d="M -3.2836914e-6,-199.99998 420.3,-199.99998 l 0,639.99999 -420.3000032836914,0 z"
         id="path4571-2-7"
         style="opacity:0.5;fill:#ffff00;fill-opacity:1;stroke:none" />
    </clipPath>
    <clipPath
       id="clipPath4569-6-8">
      <path
         d="M -3.2836914e-6,-199.99998 420.3,-199.99998 l 0,639.99999 -420.3000032836914,0 z"
         id="path4571-2-79"
         style="opacity:0.5;fill:#ffff00;fill-opacity:1;stroke:none" />
    </clipPath>
    <clipPath
       id="clipPath4117">
      <path
         d="m -134.11983,-254.71391 790.0572,0 0,694.70324 -790.0572,0 z"
         id="path4119"
         style="opacity:0.5;fill:#ffff00;fill-opacity:1;stroke:#ff0000;stroke-width:1" />
    </clipPath>
  </defs>
  <path
     d="m 38.09375,-148 344,0 -344,596 344,0"
     id="path13155-9"
     style="fill:none;stroke:#000000;stroke-width:43.99999619;stroke-linecap:square;stroke-linejoin:miter;stroke-miterlimit:4;stroke-opacity:1;stroke-dasharray:none" />
  <path
     d="M 60.090001,74 360.09,74"
     id="path4393-8"
     style="fill:#ffff00;stroke:#000000;stroke-width:44;stroke-linecap:square;stroke-linejoin:miter;stroke-miterlimit:4;stroke-opacity:1;stroke-dasharray:none" />
  <path
     d="m 60.090001,226.00001 299.999999,0"
     id="path13155-1-9-7"
     style="fill:#ffff00;stroke:#000000;stroke-width:43.99998856;stroke-linecap:square;stroke-linejoin:miter;stroke-miterlimit:4;stroke-opacity:1;stroke-dasharray:none" />
</svg>
