<?xml version="1.0" encoding="UTF-8" standalone="no"?>
<!-- Created with Inkscape (http://www.inkscape.org/) -->

<svg
   xmlns:dc="http://purl.org/dc/elements/1.1/"
   xmlns:cc="http://creativecommons.org/ns#"
   xmlns:rdf="http://www.w3.org/1999/02/22-rdf-syntax-ns#"
   xmlns:svg="http://www.w3.org/2000/svg"
   xmlns="http://www.w3.org/2000/svg"
   version="1.1"
   width="48.45343"
   height="67"
   viewBox="0 -200 484.5343 669.99999"
   id="svg2989">
  <metadata
     id="metadata2999">
    <rdf:RDF>
      <cc:Work
         rdf:about="">
        <dc:format>image/svg+xml</dc:format>
        <dc:type
           rdf:resource="http://purl.org/dc/dcmitype/StillImage" />
        <dc:title></dc:title>
      </cc:Work>
    </rdf:RDF>
  </metadata>
  <defs
     id="defs2997" />
  <g
     transform="matrix(1,0,0,-1,-33.775767,470.11916)"
     id="g2991"
     style="fill:none;stroke:#000000;stroke-width:1" />
  <path
     d="m 462.53431,144.3839 c 0,39.00105 -5.73297,78.13292 -16.76684,114.44652 -11.03387,36.3136 -27.35998,69.78034 -47.74792,97.87806 -20.38794,28.09771 -44.82168,50.8043 -71.45981,66.40851 -26.63813,15.60422 -55.45032,24.833 -84.29259,24.833 L 22,447.99999 22,-148 l 220.26716,0.05 c 28.84227,0.007 57.65446,6.28878 84.29259,20.53463 26.63812,14.24584 51.07186,35.706464 71.4598,62.764528 20.38795,27.058064 36.71405,59.6922799 47.74792,95.443221 11.03388,35.750941 16.76684,74.590471 16.76684,113.591521 z"
     id="path5449"
     style="fill:none;stroke:#000000;stroke-width:43.99999619;stroke-linecap:square;stroke-linejoin:miter;stroke-miterlimit:4;stroke-opacity:1;stroke-dasharray:none;stroke-dashoffset:0" />
</svg>
