<?xml version="1.0" encoding="UTF-8" standalone="no"?>
<!-- Created with Inkscape (http://www.inkscape.org/) -->

<svg
   xmlns:dc="http://purl.org/dc/elements/1.1/"
   xmlns:cc="http://creativecommons.org/ns#"
   xmlns:rdf="http://www.w3.org/1999/02/22-rdf-syntax-ns#"
   xmlns:svg="http://www.w3.org/2000/svg"
   xmlns="http://www.w3.org/2000/svg"
   version="1.1"
   width="44.112133"
   height="58.328125"
   viewBox="0 -200 441.12133 583.28125"
   id="svg2989">
  <metadata
     id="metadata2999">
    <rdf:RDF>
      <cc:Work
         rdf:about="">
        <dc:format>image/svg+xml</dc:format>
        <dc:type
           rdf:resource="http://purl.org/dc/dcmitype/StillImage" />
        <dc:title></dc:title>
      </cc:Work>
    </rdf:RDF>
  </metadata>
  <defs
     id="defs2997" />
  <path
     d="M 0,-200 0,340.34375 0,381 l 0,2.28125 220.75,0 0,-0.0312 c 60.82644,-0.57687 111.9361,-27.40974 153.3125,-80.5625 43.33333,-55.66667 65.66667,-124.16667 67,-205.5 1.33333,-83.33333 -20,-154.33333 -64,-213 -42.26867,-56.35829 -94.38756,-84.39967 -156.34375,-84.1563 l 0,-0.0312 L 44,-200 24.4375,-200 0,-200 z m 44,43.09375 176.5625,0 0.15625,0 c 51.00917,0.13403 93.29334,23.98412 126.84375,71.59375 35,49.66667 51.83333,110.16667 50.5,181.5 -1.33333,70.66667 -19.5,129.5 -54.5,176.5 -33.51512,45.00602 -74.50803,67.54952 -123,67.625 l 0,0.0312 -176.5625,0 0,-497.25 z"
     id="rect3594"
     style="fill:#000000;fill-opacity:1;fill-rule:evenodd;stroke:none" />
</svg>
