<?xml version="1.0" encoding="UTF-8" standalone="no"?>
<!-- Created with Inkscape (http://www.inkscape.org/) -->

<svg
   xmlns:dc="http://purl.org/dc/elements/1.1/"
   xmlns:cc="http://creativecommons.org/ns#"
   xmlns:rdf="http://www.w3.org/1999/02/22-rdf-syntax-ns#"
   xmlns:svg="http://www.w3.org/2000/svg"
   xmlns="http://www.w3.org/2000/svg"
   version="1.1"
   width="44.900002"
   height="67"
   viewBox="0 -200 449 669.99999"
   id="svg3025">
  <metadata
     id="metadata3035">
    <rdf:RDF>
      <cc:Work
         rdf:about="">
        <dc:format>image/svg+xml</dc:format>
        <dc:type
           rdf:resource="http://purl.org/dc/dcmitype/StillImage" />
        <dc:title></dc:title>
      </cc:Work>
    </rdf:RDF>
  </metadata>
  <defs
     id="defs3033">
    <clipPath
       id="clipPath4569-6">
      <path
         d="M -3.2836914e-6,-199.99998 420.3,-199.99998 l 0,639.99999 -420.3000032836914,0 z"
         id="path4571-2"
         style="opacity:0.5;fill:#ffff00;fill-opacity:1;stroke:none" />
    </clipPath>
    <clipPath
       id="clipPath4581-6">
      <path
         d="M -3.2836914e-6,-199.99998 420.3,-199.99998 l 0,639.99999 -420.3000032836914,0 z"
         id="path4583-1"
         style="opacity:0.5;fill:#ffff00;fill-opacity:1;stroke:none" />
    </clipPath>
    <clipPath
       id="clipPath4569-6-4">
      <path
         d="M -3.2836914e-6,-199.99998 420.3,-199.99998 l 0,639.99999 -420.3000032836914,0 z"
         id="path4571-2-7"
         style="opacity:0.5;fill:#ffff00;fill-opacity:1;stroke:none" />
    </clipPath>
  </defs>
  <g
     transform="matrix(0.99999998,0,0,-0.99999998,1623.9327,838.04962)"
     id="g2991"
     style="fill:none;stroke:#000000;stroke-width:1" />
  <path
     d="m 264.53315,215.9285 162.42229,0 0.002,84.3125 c 0.002,81.8812 -82.341,147.8125 -184.69159,147.72384 -28.83199,0.6465 -57.65825,-6.37338 -84.29635,-20.61922 -26.6376,-14.24585 -51.0714,-35.70646 -71.459308,-62.76453 -20.3879,-27.05806 -36.714,-59.69227 -47.7479,-95.44321 -11.0339,-35.75094 -16.7669,-74.59047 -16.7669,-113.59152 0,-39.00105 5.733,-78.132923 16.7669,-114.446523 11.0339,-36.3136 27.36,-69.78034 47.7479,-97.87806 20.387908,-28.09771 44.821708,-50.804287 71.459808,-66.408497 26.6381,-15.60422 55.45969,-24.0938 84.29652,-24.91936 102.35542,-0.0904 184.69142,65.840877 184.69142,147.722087"
     id="path7505-8"
     style="fill:none;stroke:#000000;stroke-width:44;stroke-linecap:butt;stroke-linejoin:miter;stroke-miterlimit:4;stroke-opacity:1;stroke-dasharray:none" />
</svg>
