<?xml version="1.0" encoding="UTF-8" standalone="no"?>
<!-- Created with Inkscape (http://www.inkscape.org/) -->

<svg
   xmlns:dc="http://purl.org/dc/elements/1.1/"
   xmlns:cc="http://creativecommons.org/ns#"
   xmlns:rdf="http://www.w3.org/1999/02/22-rdf-syntax-ns#"
   xmlns:svg="http://www.w3.org/2000/svg"
   xmlns="http://www.w3.org/2000/svg"
   version="1.1"
   width="100%"
   height="100%"
   viewBox="0 -200 1000 1000"
   id="svg3025">
  <metadata
     id="metadata3035">
    <rdf:RDF>
      <cc:Work
         rdf:about="">
        <dc:format>image/svg+xml</dc:format>
        <dc:type
           rdf:resource="http://purl.org/dc/dcmitype/StillImage" />
        <dc:title></dc:title>
      </cc:Work>
    </rdf:RDF>
  </metadata>
  <defs
     id="defs3033" />
  <g
     transform="matrix(1,0,0,-1,0,800)"
     id="g3027">
    <path
       d="M 448,118 Q 448,72 399,33 350,-6 288,-6 171,-6 106.5,76.5 42,159 42,314 q 0,183 95,243 44,28 132,28 57,0 99,-26 42,-26 42,-66 h -44 q 0,48 -97,48 -69,0 -107,-25 Q 86,466 86,314 86,180 139,109 192,38 288,38 333,38 368.5,62.5 404,87 404,118 V 314 H 224 v 44 H 448 V 118 z"
       id="path3029"
       style="fill:currentColor" />
  </g>
</svg>
