<?xml version="1.0" encoding="UTF-8" standalone="no"?>
<!-- Created with Inkscape (http://www.inkscape.org/) -->

<svg
   xmlns:dc="http://purl.org/dc/elements/1.1/"
   xmlns:cc="http://creativecommons.org/ns#"
   xmlns:rdf="http://www.w3.org/1999/02/22-rdf-syntax-ns#"
   xmlns:svg="http://www.w3.org/2000/svg"
   xmlns="http://www.w3.org/2000/svg"
   version="1.1"
   width="45.200001"
   height="65.099998"
   viewBox="0 -200 452.00001 650.99998"
   id="svg2">
  <metadata
     id="metadata12">
    <rdf:RDF>
      <cc:Work
         rdf:about="">
        <dc:format>image/svg+xml</dc:format>
        <dc:type
           rdf:resource="http://purl.org/dc/dcmitype/StillImage" />
        <dc:title></dc:title>
      </cc:Work>
    </rdf:RDF>
  </metadata>
  <defs
     id="defs10" />
  <g
     transform="matrix(1,0,0,-1,-59,450)"
     id="g4">
    <path
       d="M 511,-1 H 449 L 223,246 H 103 V -1 H 59 v 635 q 75,16 147,16 171,0 230,-121 21,-45 21,-86 0,-36 -21,-90 -17,-44 -33,-67 -21,-31 -56,-40 -22,-6 -62,0 z M 391,369 q 18,43 18,77 0,70 -73,125 -40,30 -125,30 -53,0 -108,-11 V 290 h 224 q 26,0 41,26 3,6 23,53 z"
       id="path6"
       style="fill:currentColor" />
  </g>
</svg>
