<?xml version="1.0" encoding="UTF-8" standalone="no"?>
<!-- Created with Inkscape (http://www.inkscape.org/) -->

<svg
   xmlns:dc="http://purl.org/dc/elements/1.1/"
   xmlns:cc="http://creativecommons.org/ns#"
   xmlns:rdf="http://www.w3.org/1999/02/22-rdf-syntax-ns#"
   xmlns:svg="http://www.w3.org/2000/svg"
   xmlns="http://www.w3.org/2000/svg"
   version="1.1"
   width="48.060001"
   height="67"
   viewBox="0 -200 480.6 670"
   id="svg3001">
  <metadata
     id="metadata3011">
    <rdf:RDF>
      <cc:Work
         rdf:about="">
        <dc:format>image/svg+xml</dc:format>
        <dc:type
           rdf:resource="http://purl.org/dc/dcmitype/StillImage" />
        <dc:title></dc:title>
      </cc:Work>
    </rdf:RDF>
  </metadata>
  <defs
     id="defs3009">
    <clipPath
       id="clipPath7764">
      <path
         d="m -2.6293944e-6,-180.49995 413.4999926293944,0 0,640 -413.4999926293944,0 z"
         id="path7766"
         style="opacity:0.5;fill:#ffff00;fill-opacity:1;stroke:none" />
    </clipPath>
    <clipPath
       id="clipPath4581-6">
      <path
         d="M -3.2836914e-6,-199.99998 420.3,-199.99998 l 0,639.99999 -420.3000032836914,0 z"
         id="path4583-1"
         style="opacity:0.5;fill:#ffff00;fill-opacity:1;stroke:none" />
    </clipPath>
    <clipPath
       id="clipPath4581-6-0">
      <path
         d="M -3.2836914e-6,-199.99998 420.3,-199.99998 l 0,639.99999 -420.3000032836914,0 z"
         id="path4583-1-2"
         style="opacity:0.5;fill:#ffff00;fill-opacity:1;stroke:none" />
    </clipPath>
    <clipPath
       id="clipPath4569-6-3">
      <path
         d="M -3.2836914e-6,-199.99998 420.3,-199.99998 l 0,639.99999 -420.3000032836914,0 z"
         id="path4571-2-7"
         style="opacity:0.5;fill:#ffff00;fill-opacity:1;stroke:none" />
    </clipPath>
    <clipPath
       id="clipPath7764-5">
      <path
         d="m -2.6293944e-6,-180.49995 413.4999926293944,0 0,640 -413.4999926293944,0 z"
         id="path7766-0"
         style="opacity:0.5;fill:#ffff00;fill-opacity:1;stroke:none" />
    </clipPath>
    <clipPath
       id="clipPath4924">
      <path
         d="m -224.98922,-345.84049 921.50688,0 0,805.8405 -921.50688,0 z"
         id="path4926"
         style="opacity:0.5;fill:#ffff00;fill-opacity:1;stroke:none" />
    </clipPath>
    <clipPath
       id="clipPath4924-6">
      <path
         d="m -224.98922,-345.84049 921.50688,0 0,805.8405 -921.50688,0 z"
         id="path4926-3"
         style="opacity:0.5;fill:#ffff00;fill-opacity:1;stroke:none" />
    </clipPath>
    <clipPath
       id="clipPath14341">
      <path
         d="M -6.866455e-6,-200 480.60001,-200 l 0,670.00001 -480.600016866455,0 z"
         id="path14343"
         style="opacity:0.5;fill:#ffff00;fill-opacity:1;stroke:none" />
    </clipPath>
    <clipPath
       id="clipPath14346">
      <path
         d="m 128.75596,149.99999 223.08014,0 0,320.00001 -223.08014,0 z"
         id="path14348"
         style="opacity:0.5;fill:#ffff00;fill-opacity:1;stroke:none" />
    </clipPath>
  </defs>
  <path
     d="m -848.36018,450 213.21093,0 0,330 -213.21093,0 z"
     id="path7766-1"
     style="opacity:0.5;fill:#ffff00;fill-opacity:1;stroke:none" />
  <path
     d="m -641.6081,472 0,320.00003 -184.75208,-320 0,320"
     id="path7073-5"
     style="fill:none;stroke:#000000;stroke-width:44;stroke-linecap:butt;stroke-linejoin:miter;stroke-miterlimit:4;stroke-opacity:1;stroke-dasharray:none" />
  <g
     id="g13125">
    <path
       d="m -1169.4428,52.05505 0,640.00006 -369.5042,-640 0,640"
       id="path7073-5-7"
       style="fill:none;stroke:#000000;stroke-width:44;stroke-linecap:butt;stroke-linejoin:miter;stroke-miterlimit:4;stroke-opacity:1;stroke-dasharray:none" />
    <path
       d="m -1560.947,52.055115 413.5,0 0,639.999995 -413.5,0 z"
       id="path7766-1-6"
       style="opacity:0.5;fill:#ffff00;fill-opacity:1;stroke:none" />
  </g>
  <path
     d="m 332.67207,149.99997 0,320.00003 -184.75208,-320 0,320"
     transform="matrix(0.78271644,0,0,0.79374411,52.221332,96.940268)"
     clip-path="url(#clipPath14346)"
     id="path7073-5-6"
     style="fill:none;stroke:#000000;stroke-width:38.06087494;stroke-linecap:butt;stroke-linejoin:miter;stroke-miterlimit:4;stroke-opacity:1;stroke-dasharray:none" />
  <path
     d="M 498.63026,584 240.33086,-125.67172 -17.968551,584 m 171.968541,-434 172.6,1e-5"
     clip-path="url(#clipPath14341)"
     id="path13155-1-9-7"
     style="fill:none;stroke:#000000;stroke-width:43.99998474;stroke-linecap:square;stroke-linejoin:miter;stroke-miterlimit:4;stroke-opacity:1;stroke-dasharray:none" />
</svg>
