<?xml version="1.0" encoding="UTF-8" standalone="no"?>
<!-- Created with Inkscape (http://www.inkscape.org/) -->

<svg
   xmlns:dc="http://purl.org/dc/elements/1.1/"
   xmlns:cc="http://creativecommons.org/ns#"
   xmlns:rdf="http://www.w3.org/1999/02/22-rdf-syntax-ns#"
   xmlns:svg="http://www.w3.org/2000/svg"
   xmlns="http://www.w3.org/2000/svg"
   version="1.1"
   width="100"
   height="100"
   viewBox="0 -200 1000 1000"
   id="svg2989">
  <metadata
     id="metadata2999">
    <rdf:RDF>
      <cc:Work
         rdf:about="">
        <dc:format>image/svg+xml</dc:format>
        <dc:type
           rdf:resource="http://purl.org/dc/dcmitype/StillImage" />
        <dc:title></dc:title>
      </cc:Work>
    </rdf:RDF>
  </metadata>
  <defs
     id="defs2997" />
  <g
     transform="matrix(1,0,0,-1,0,800)"
     id="g2991">
    <path
       d="M 403,155 Q 403,91 356,44.5 309,-2 244,-2 180,-2 134,44 88,90 88,155 h 44 q 0,-47 33,-80 33,-33 79,-33 47,0 81,33.5 34,33.5 34,79.5 v 271 q 0,47 -34,80 -34,33 -81,33 -47,0 -79.5,-33 Q 132,473 132,426 H 88 q 0,65 45.5,111 45.5,46 110.5,46 65,0 112,-46 47,-46 47,-111 V 155 z"
       id="path2993"
       style="fill:currentColor" />
  </g>
</svg>
