<?xml version="1.0" encoding="UTF-8" standalone="no"?>
<!-- Created with Inkscape (http://www.inkscape.org/) -->

<svg
   xmlns:dc="http://purl.org/dc/elements/1.1/"
   xmlns:cc="http://creativecommons.org/ns#"
   xmlns:rdf="http://www.w3.org/1999/02/22-rdf-syntax-ns#"
   xmlns:svg="http://www.w3.org/2000/svg"
   xmlns="http://www.w3.org/2000/svg"
   version="1.1"
   width="44.113155"
   height="58.327797"
   viewBox="0 -200 441.13155 583.27797"
   id="svg2989">
  <metadata
     id="metadata2999">
    <rdf:RDF>
      <cc:Work
         rdf:about="">
        <dc:format>image/svg+xml</dc:format>
        <dc:type
           rdf:resource="http://purl.org/dc/dcmitype/StillImage" />
        <dc:title></dc:title>
      </cc:Work>
    </rdf:RDF>
  </metadata>
  <defs
     id="defs2997" />
  <g
     transform="matrix(1,0,0,-1,-29.927273,382.17391)"
     id="g2991">
    <path
       d="M 471,285 Q 469,163 404,79.5 339,-4 242,-1 150,2 91,82.5 32,163 30,284 q -2,117 51,201 59,93 162,97 98,4 164,-84 66,-88 64,-213 z m -43,1 Q 430,393 377.5,467.5 325,542 244,539 166,536 118.5,464 71,392 73,286 75,182 122,113.5 169,45 244,42 321,39 373.5,109.5 426,180 428,286 z"
       id="path2993"
       style="fill:currentColor" />
  </g>
</svg>
