<?xml version="1.0" encoding="UTF-8" standalone="no"?>
<!-- Created with Inkscape (http://www.inkscape.org/) -->

<svg
   xmlns:dc="http://purl.org/dc/elements/1.1/"
   xmlns:cc="http://creativecommons.org/ns#"
   xmlns:rdf="http://www.w3.org/1999/02/22-rdf-syntax-ns#"
   xmlns:svg="http://www.w3.org/2000/svg"
   xmlns="http://www.w3.org/2000/svg"
   version="1.1"
   width="44.113155"
   height="58.748249"
   viewBox="0 -200 441.13155 587.48249"
   id="svg2989">
  <metadata
     id="metadata2999">
    <rdf:RDF>
      <cc:Work
         rdf:about="">
        <dc:format>image/svg+xml</dc:format>
        <dc:type
           rdf:resource="http://purl.org/dc/dcmitype/StillImage" />
        <dc:title></dc:title>
      </cc:Work>
    </rdf:RDF>
  </metadata>
  <defs
     id="defs2997" />
  <path
     d="m 219.16648,-199.98624 c -2.02083,0.0234 -4.05208,0.0729 -6.09375,0.15625 -68.66667,2.66667 -122.666673,35 -162.000003,97 C 15.739394,-46.829991 -1.2606058,20.170009 0.07272724,98.170009 1.4060602,178.83668 21.739394,246.00334 61.072727,299.67001 c 39.333333,53.66667 89.666673,81.5 151.000003,83.5 55.06585,1.7031 102.40316,-17.5134 142,-57.625 l 44.96875,61.9375 34.21875,-26.8125 -50.8125,-69.3125 c 37.83176,-53.55286 57.38054,-118.27573 58.625,-194.187501 1.33333,-83.33333 -20,-154.33333 -64,-212.999999 -42.625,-56.83333 -95.26042,-84.88281 -157.90625,-84.15625 z m -0.0625,43.03125 c 51.7373,-0.37337 94.5625,23.51042 128.46875,71.624999 35,49.66667 51.83333,110.16667 50.5,181.5 -1.16995,62.007371 -15.2837,114.902071 -42.375,158.687501 l -47.90625,-65.34375 -33.46875,26.21875 54.375,74.875 c -32.13142,34.75098 -70.33472,51.2881 -114.625,49.5625 -50,-2 -90.66667,-25.83333 -122.000003,-71.5 -31.333333,-45.66667 -47.666667,-103.16667 -49,-172.500001 -1.333333,-70.66667 13.833333,-130 45.5,-178 31.666673,-47.999999 73.500003,-72.999999 125.500003,-74.999999 1.6875,-0.0625 3.3623,-0.11296 5.03125,-0.125 z"
     id="path2993"
     style="fill:currentColor" />
</svg>
