<?xml version="1.0" encoding="UTF-8" standalone="no"?>
<!-- Created with Inkscape (http://www.inkscape.org/) -->

<svg
   xmlns:dc="http://purl.org/dc/elements/1.1/"
   xmlns:cc="http://creativecommons.org/ns#"
   xmlns:rdf="http://www.w3.org/1999/02/22-rdf-syntax-ns#"
   xmlns:svg="http://www.w3.org/2000/svg"
   xmlns="http://www.w3.org/2000/svg"
   version="1.1"
   width="100"
   height="100"
   viewBox="0 -200 1000 1000"
   id="svg3037">
  <metadata
     id="metadata3047">
    <rdf:RDF>
      <cc:Work
         rdf:about="">
        <dc:format>image/svg+xml</dc:format>
        <dc:type
           rdf:resource="http://purl.org/dc/dcmitype/StillImage" />
        <dc:title></dc:title>
      </cc:Work>
    </rdf:RDF>
  </metadata>
  <defs
     id="defs3045" />
  <g
     transform="matrix(1,0,0,-1,0,800)"
     id="g3039">
    <path
       d="M 450,157 Q 450,93 404,46.5 358,0 293,0 H 88 v 580 h 205 q 65,0 111.5,-46 46.5,-46 45.5,-110 -1,-88 -77,-134 77,-45 77,-133 z m -44,0 q 0,46 -33.5,79 -33.5,33 -79.5,33 l 1,44 q 46,-1 79,32 33,33 33,79 0,46 -33,79 -33,33 -80,33 H 132 V 44 h 161 q 47,0 80,33.5 33,33.5 33,79.5 z M 297,269 H 119 v 44 h 178 v -44 z"
       id="path3041"
       style="fill:currentColor" />
  </g>
</svg>
