<?xml version="1.0" encoding="UTF-8" standalone="no"?>
<!-- Created with Inkscape (http://www.inkscape.org/) -->

<svg
   xmlns:dc="http://purl.org/dc/elements/1.1/"
   xmlns:cc="http://creativecommons.org/ns#"
   xmlns:rdf="http://www.w3.org/1999/02/22-rdf-syntax-ns#"
   xmlns:svg="http://www.w3.org/2000/svg"
   xmlns="http://www.w3.org/2000/svg"
   version="1.1"
   width="44.587502"
   height="64.599998"
   viewBox="0 -200 445.87502 645.99998"
   id="svg3061">
  <metadata
     id="metadata3071">
    <rdf:RDF>
      <cc:Work
         rdf:about="">
        <dc:format>image/svg+xml</dc:format>
        <dc:type
           rdf:resource="http://purl.org/dc/dcmitype/StillImage" />
        <dc:title></dc:title>
      </cc:Work>
    </rdf:RDF>
  </metadata>
  <defs
     id="defs3069" />
  <g
     transform="translate(-30.0625,-356)"
     id="g10177">
    <path
       d="m 31,356 0,24.96875 3.8125,5.71875 C 34.8794,386.79005 34.931336,386.897 35,387 l 194.40625,291.625 -104.5625,156.46875 -0.46875,0.6875 c -0.0946,0.13646 -0.18811,0.26654 -0.28125,0.40625 L 85.8125,893.46875 34,971 c -0.04744,0.0712 -0.0784,0.1478 -0.125,0.21875 l -3.8125,5.6875 0,25.06255 31.9375,0 5.90625,-8.8438 L 68,993 158.09375,858.1875 c 0.25,-0.33333 0.46875,-0.66667 0.6875,-1.03125 l 94.9375,-142.0625 50.75,76.125 L 439,993 c 0.25,0.375 0.48958,0.74219 0.75,1.09375 l 5.28125,7.90625 29.9375,0 0,-26.5625 L 472,971 352.15625,791.21875 277.59375,679.375 368.375,543.53125 473,387 c 0.25,-0.33333 0.46875,-0.69792 0.6875,-1.0625 l 2.25,-3.375 0,-26.53125 -30.9375,0 -5.25,7.875 L 368.375,470.6875 253.28125,642.90625 160.625,503.9375 134.5625,464.84375 68,365 l -6,-9 -31,0 z"
       transform="translate(0,-200)"
       id="path3065"
       style="fill:currentColor" />
  </g>
</svg>
