<?xml version="1.0" encoding="UTF-8" standalone="no"?>
<!-- Created with Inkscape (http://www.inkscape.org/) -->

<svg
   xmlns:dc="http://purl.org/dc/elements/1.1/"
   xmlns:cc="http://creativecommons.org/ns#"
   xmlns:rdf="http://www.w3.org/1999/02/22-rdf-syntax-ns#"
   xmlns:svg="http://www.w3.org/2000/svg"
   xmlns="http://www.w3.org/2000/svg"
   version="1.1"
   width="100%"
   height="100%"
   viewBox="0 -200 1000 1000"
   id="svg3085">
  <metadata
     id="metadata3095">
    <rdf:RDF>
      <cc:Work
         rdf:about="">
        <dc:format>image/svg+xml</dc:format>
        <dc:type
           rdf:resource="http://purl.org/dc/dcmitype/StillImage" />
        <dc:title></dc:title>
      </cc:Work>
    </rdf:RDF>
  </metadata>
  <defs
     id="defs3093" />
  <g
     transform="matrix(1,0,0,-1,0,800)"
     id="g3087">
    <path
       d="M 491,311 Q 491,189 431,97 362,-9 246,-9 130,-9 62,97 3,189 3,311 q 0,122 59,214 68,106 184,106 116,0 185,-106 60,-92 60,-214 z M 445,288 48,289 Q 55,180 109.5,108 164,36 246,35 q 84,-1 139,73 54,71 60,180 z m -397,45 397,-1 q -5,100 -51,170 -56,85 -148,85 -82,0 -136.5,-71.5 Q 55,444 48,333 z"
       id="path3089"
       style="fill:currentColor" />
  </g>
</svg>
