<?xml version="1.0" encoding="UTF-8" standalone="no"?>
<!-- Created with Inkscape (http://www.inkscape.org/) -->

<svg
   xmlns:dc="http://purl.org/dc/elements/1.1/"
   xmlns:cc="http://creativecommons.org/ns#"
   xmlns:rdf="http://www.w3.org/1999/02/22-rdf-syntax-ns#"
   xmlns:svg="http://www.w3.org/2000/svg"
   xmlns="http://www.w3.org/2000/svg"
   version="1.1"
   width="34.700001"
   height="77"
   viewBox="0 -200 347.00002 770.00001"
   id="svg2">
  <metadata
     id="metadata12">
    <rdf:RDF>
      <cc:Work
         rdf:about="">
        <dc:format>image/svg+xml</dc:format>
        <dc:type
           rdf:resource="http://purl.org/dc/dcmitype/StillImage" />
        <dc:title></dc:title>
      </cc:Work>
    </rdf:RDF>
  </metadata>
  <defs
     id="defs10" />
  <path
     d="m 227.70109,3.08102 7.27686,-4.20852 c 11.93636,-6.9033 28.81508,-20.15016 35.34258,-27.73776 10.83725,-12.59731 18.1501,-31.35935 18.1501,-46.56635 0,-4.73595 -0.10497,-4.80126 -10.31478,-6.4168 -28.15722,-4.45546 -49.80242,-26.8201 -51.48699,-53.19826 -1.20855,-18.92419 4.01591,-32.42226 17.4291,-45.03037 19.69917,-18.51682 51.14982,-17.79349 72.15046,1.65933 9.26353,8.58078 16.84504,20.2112 20.89276,32.05052 2.77504,8.1168 3.37929,13.18542 3.3583,28.17027 -0.0287,20.69534 -2.37572,33.46755 -9.61558,52.33338 -11.8644,30.91657 -40.1884,61.77582 -77.71407,84.67016 C 246.95549,22.59797 241.46348,25.7 240.96537,25.7 z"
     id="path6166-3"
     style="fill:#000000;fill-opacity:1;stroke:#000000;stroke-width:12.99999905;stroke-miterlimit:4;stroke-opacity:1;stroke-dasharray:none" />
  <path
     d="m 119.2989,-170.88216 -7.27686,4.20852 c -11.93636,6.9033 -28.815066,20.15016 -35.342566,27.73776 -10.83725,12.59731 -18.1501,31.35935 -18.1501,46.56635 0,4.73596 0.10497,4.80126 10.31478,6.4168 28.15722,4.45547 49.802406,26.82009 51.486976,53.19826 1.20855,18.92419 -4.01591,32.42225 -17.4291,45.03037 C 83.202874,30.79272 51.752224,30.06939 30.751584,10.61657 21.488051,2.03579 13.906541,-9.59464 9.8588209,-21.43395 c -2.77504,-8.1168 -3.37929,-13.18542 -3.3583,-28.17027 0.029,-20.69534 2.37572,-33.46754 9.6155801,-52.33337 11.864403,-30.91658 40.188403,-61.77583 77.714073,-84.67017 6.214326,-3.79136 11.706336,-6.89338 12.204446,-6.89338 z"
     id="path6166-3-6"
     style="fill:#000000;fill-opacity:1;stroke:#000000;stroke-width:12.99999905;stroke-miterlimit:4;stroke-opacity:1;stroke-dasharray:none" />
</svg>
