<?xml version="1.0" encoding="UTF-8" standalone="no"?>
<!-- Created with Inkscape (http://www.inkscape.org/) -->

<svg
   xmlns:dc="http://purl.org/dc/elements/1.1/"
   xmlns:cc="http://creativecommons.org/ns#"
   xmlns:rdf="http://www.w3.org/1999/02/22-rdf-syntax-ns#"
   xmlns:svg="http://www.w3.org/2000/svg"
   xmlns="http://www.w3.org/2000/svg"
   version="1.1"
   width="100%"
   height="100%"
   viewBox="0 -200 1000 1000"
   id="svg2">
  <metadata
     id="metadata12">
    <rdf:RDF>
      <cc:Work
         rdf:about="">
        <dc:format>image/svg+xml</dc:format>
        <dc:type
           rdf:resource="http://purl.org/dc/dcmitype/StillImage" />
        <dc:title></dc:title>
      </cc:Work>
    </rdf:RDF>
  </metadata>
  <defs
     id="defs10" />
  <g
     transform="matrix(1,0,0,-1,0,800)"
     id="g4">
    <path
       d="M 185,543 Q 185,517 167,498.5 149,480 123,480 97,480 78.5,498.5 60,517 60,543 h -2 v 130 q 0,43 23,60 23,17 83,17 v -44 q -36,0 -46,-4 -16,-6 -16,-29 v -71 q 9,3 21,3 26,0 44,-18 18,-18 18,-44 z m 242,14 Q 427,513 403,496.5 379,480 321,480 v 44 q 35,0 46,4 16,6 16,29 v 71 l -21,-3 q -26,1 -44,19 -18,18 -18,44 0,26 18.5,44 18.5,18 43.5,18 26,0 44,-18 18,-18 18,-44 h 3 V 557 z"
       id="path6"
       style="fill:currentColor" />
  </g>
</svg>
