<?xml version="1.0" encoding="UTF-8" standalone="no"?>
<!-- Created with Inkscape (http://www.inkscape.org/) -->

<svg
   xmlns:dc="http://purl.org/dc/elements/1.1/"
   xmlns:cc="http://creativecommons.org/ns#"
   xmlns:rdf="http://www.w3.org/1999/02/22-rdf-syntax-ns#"
   xmlns:svg="http://www.w3.org/2000/svg"
   xmlns="http://www.w3.org/2000/svg"
   version="1.1"
   width="44.5"
   height="77"
   viewBox="0 -200 445 770.00001"
   id="svg3061">
  <metadata
     id="metadata3071">
    <rdf:RDF>
      <cc:Work
         rdf:about="">
        <dc:format>image/svg+xml</dc:format>
        <dc:type
           rdf:resource="http://purl.org/dc/dcmitype/StillImage" />
        <dc:title></dc:title>
      </cc:Work>
    </rdf:RDF>
  </metadata>
  <defs
     id="defs3069" />
  <g
     transform="matrix(1,0,0,-1,-46,555)"
     id="g3063">
    <path
       d="M 491,755 Q 491,663 425.5,598 360,533 268,533 177,533 111.5,598.5 46,664 46,755 H 86 Q 86,680 139.5,626.5 193,573 268,573 q 76,0 129.5,53 53.5,53 53.5,129 h 40 z m 0,-287 h -40 q 0,76 -53.5,129 Q 344,650 268,650 192,650 139,596.5 86,543 86,468 H 46 q 0,92 65,157 65,65 157,65 92,0 157.5,-65 Q 491,560 491,468 z"
       id="path3065" />
  </g>
</svg>
