<?xml version="1.0" encoding="UTF-8" standalone="no"?>
<!-- Created with Inkscape (http://www.inkscape.org/) -->

<svg
   xmlns:dc="http://purl.org/dc/elements/1.1/"
   xmlns:cc="http://creativecommons.org/ns#"
   xmlns:rdf="http://www.w3.org/1999/02/22-rdf-syntax-ns#"
   xmlns:svg="http://www.w3.org/2000/svg"
   xmlns="http://www.w3.org/2000/svg"
   version="1.1"
   width="36.606247"
   height="77"
   viewBox="0 -200 366.06249 769.99996"
   id="svg3013">
  <metadata
     id="metadata3023">
    <rdf:RDF>
      <cc:Work
         rdf:about="">
        <dc:format>image/svg+xml</dc:format>
        <dc:type
           rdf:resource="http://purl.org/dc/dcmitype/StillImage" />
        <dc:title></dc:title>
      </cc:Work>
    </rdf:RDF>
  </metadata>
  <defs
     id="defs3021" />
  <g
     transform="translate(0,-539.11268)"
     id="g4104">
    <path
       d="m 337.23188,369.89572 c -3.49159,8.25012 -8.544,15.67983 -14.78729,21.91936 -12.48654,12.4791 -29.73656,20.19757 -54.56443,20.19757 -68.05358,-0.37198 -107.68035,-50.28347 -169.47781,-50.8 -25.035689,0.0106 -42.285699,7.72908 -54.772239,20.20817 -6.24328,6.23953 -11.29568,13.66924 -14.78727,21.91937"
       id="path3900-2-9-2"
       style="fill:none;stroke:#000000;stroke-width:44.00000763;stroke-linecap:square;stroke-linejoin:miter;stroke-miterlimit:4;stroke-opacity:1;stroke-dashoffset:0" />
    <path
       d="m 337.23189,505.89572 c -3.49159,8.25012 -8.544,15.67983 -14.78729,21.91936 -12.48655,12.4791 -29.73657,20.19757 -54.56444,20.19757 -68.05358,-0.37198 -107.68035,-50.28347 -169.47782,-50.8 -25.035688,0.0106 -42.285699,7.72908 -54.772239,20.20817 -6.243281,6.23953 -11.295681,13.66924 -14.787271,21.91937"
       id="path3900-2-9-2-7"
       style="fill:none;stroke:#000000;stroke-width:44.00000763;stroke-linecap:square;stroke-linejoin:miter;stroke-miterlimit:4;stroke-opacity:1;stroke-dashoffset:0" />
  </g>
</svg>
