<?xml version="1.0" encoding="UTF-8" standalone="no"?>
<!-- Created with Inkscape (http://www.inkscape.org/) -->

<svg
   xmlns:dc="http://purl.org/dc/elements/1.1/"
   xmlns:cc="http://creativecommons.org/ns#"
   xmlns:rdf="http://www.w3.org/1999/02/22-rdf-syntax-ns#"
   xmlns:svg="http://www.w3.org/2000/svg"
   xmlns="http://www.w3.org/2000/svg"
   version="1.1"
   width="100"
   height="100"
   viewBox="0 -200 1000 1000"
   id="svg3013">
  <metadata
     id="metadata3023">
    <rdf:RDF>
      <cc:Work
         rdf:about="">
        <dc:format>image/svg+xml</dc:format>
        <dc:type
           rdf:resource="http://purl.org/dc/dcmitype/StillImage" />
        <dc:title></dc:title>
      </cc:Work>
    </rdf:RDF>
  </metadata>
  <defs
     id="defs3021" />
  <g
     transform="matrix(1,0,0,-1,0,800)"
     id="g3015">
    <path
       d="m 407,699 q -26,-38 -51,-51 -25,-13 -64,-13 -22,0 -68.5,27.5 Q 177,690 153,690 83,690 83,655 H 43 q 0,31 33,53 33,22 77,22 24,0 70.5,-27.5 Q 270,675 292,675 q 51,0 81,46 z m 0,-136 q -26,-38 -51,-51 -25,-13 -64,-13 -22,0 -68.5,27.5 Q 177,554 153,554 83,554 83,519 H 43 q 0,31 33,53 33,22 77,22 24,0 70.5,-27.5 Q 270,539 292,539 q 51,0 81,46 z"
       id="path3017"
       style="fill:currentColor" />
  </g>
</svg>
