<?xml version="1.0" encoding="UTF-8" standalone="no"?>
<!-- Created with Inkscape (http://www.inkscape.org/) -->

<svg
   xmlns:dc="http://purl.org/dc/elements/1.1/"
   xmlns:cc="http://creativecommons.org/ns#"
   xmlns:rdf="http://www.w3.org/1999/02/22-rdf-syntax-ns#"
   xmlns:svg="http://www.w3.org/2000/svg"
   xmlns="http://www.w3.org/2000/svg"
   version="1.1"
   width="100%"
   height="100%"
   viewBox="0 -200 1000 1000"
   id="svg2989">
  <metadata
     id="metadata2999">
    <rdf:RDF>
      <cc:Work
         rdf:about="">
        <dc:format>image/svg+xml</dc:format>
        <dc:type
           rdf:resource="http://purl.org/dc/dcmitype/StillImage" />
        <dc:title></dc:title>
      </cc:Work>
    </rdf:RDF>
  </metadata>
  <defs
     id="defs2997" />
  <path
     d="m 249.09375,417.84375 c -2.02083,0.0234 -4.05208,0.0729 -6.09375,0.15625 -68.66667,2.66667 -122.66667,35 -162,97 -35.333333,56 -52.333333,123 -51,201 1.333333,80.66667 21.666667,147.83333 61,201.5 39.33333,53.66667 89.66667,81.5 151,83.5 55.06585,1.7031 102.40316,-17.5134 142,-57.625 l 44.96875,61.9375 L 463.1875,978.5 412.375,909.1875 C 450.20676,855.63464 469.75554,790.91177 471,715 472.33333,631.66667 451,560.66667 407,502 364.375,445.16667 311.73958,417.11719 249.09375,417.84375 z m -0.0625,43.03125 c 51.7373,-0.37337 94.5625,23.51042 128.46875,71.625 35,49.66667 51.83333,110.16667 50.5,181.5 -1.16995,62.00737 -15.2837,114.90207 -42.375,158.6875 L 337.71875,807.34375 304.25,833.5625 l 54.375,74.875 C 326.49358,943.18848 288.29028,959.7256 244,958 194,956 153.33333,932.16667 122,886.5 90.666667,840.83333 74.333333,783.33333 73,714 71.666667,643.33333 86.833333,584 118.5,536 150.16667,488 192,463 244,461 c 1.6875,-0.0625 3.3623,-0.11296 5.03125,-0.125 z"
     transform="translate(0,-200)"
     id="path2993"
     style="fill:currentColor" />
</svg>
