<?xml version="1.0" encoding="UTF-8" standalone="no"?>
<!-- Created with Inkscape (http://www.inkscape.org/) -->

<svg
   xmlns:dc="http://purl.org/dc/elements/1.1/"
   xmlns:cc="http://creativecommons.org/ns#"
   xmlns:rdf="http://www.w3.org/1999/02/22-rdf-syntax-ns#"
   xmlns:svg="http://www.w3.org/2000/svg"
   xmlns="http://www.w3.org/2000/svg"
   version="1.1"
   width="100%"
   height="100%"
   viewBox="0 -200 1000 1000"
   id="svg3061">
  <metadata
     id="metadata3071">
    <rdf:RDF>
      <cc:Work
         rdf:about="">
        <dc:format>image/svg+xml</dc:format>
        <dc:type
           rdf:resource="http://purl.org/dc/dcmitype/StillImage" />
        <dc:title></dc:title>
      </cc:Work>
    </rdf:RDF>
  </metadata>
  <defs
     id="defs3069" />
  <g
     transform="matrix(1,0,0,-1,0,800)"
     id="g3063">
    <path
       d="M 68,635 472,29 q 3,-6 3,-11 0,-20 -20,-20 -10,0 -16,9 L 35,613 q -4,6 -4,11 0,20 20,20 11,0 17,-9 z M 473,613 68,7 q -6,-9 -17,-9 -21,0 -21,20 0,5 4,11 l 405,606 q 6,9 16,9 21,0 21,-20 0,-7 -3,-11 z"
       id="path3065"
       style="fill:currentColor" />
  </g>
</svg>
