<?xml version="1.0" encoding="UTF-8" standalone="no"?>
<!-- Created with Inkscape (http://www.inkscape.org/) -->

<svg
   xmlns:dc="http://purl.org/dc/elements/1.1/"
   xmlns:cc="http://creativecommons.org/ns#"
   xmlns:rdf="http://www.w3.org/1999/02/22-rdf-syntax-ns#"
   xmlns:svg="http://www.w3.org/2000/svg"
   xmlns="http://www.w3.org/2000/svg"
   version="1.1"
   width="35.299999"
   height="35.299999"
   viewBox="0 -200 352.99999 352.99999"
   id="svg3001">
  <metadata
     id="metadata3011">
    <rdf:RDF>
      <cc:Work
         rdf:about="">
        <dc:format>image/svg+xml</dc:format>
        <dc:type
           rdf:resource="http://purl.org/dc/dcmitype/StillImage" />
        <dc:title></dc:title>
      </cc:Work>
    </rdf:RDF>
  </metadata>
  <defs
     id="defs3009" />
  <g
     transform="matrix(1,0,0,-1,-46,569)"
     id="g3003">
    <path
       d="M 399,593 Q 399,520 347,468 295,416 222,416 149,416 97.5,468 46,520 46,593 46,667 97.5,718 149,769 222,769 295,769 347,717.5 399,666 399,593 z m -44,0 q 0,55 -39,93.5 Q 277,725 222,725 167,725 128.5,687 90,649 90,593 q 0,-55 38.5,-94 38.5,-39 93.5,-39 55,0 94,39 39,39 39,94 z"
       id="path3005"
       style="fill:currentColor" />
  </g>
</svg>
