<?xml version="1.0" encoding="UTF-8" standalone="no"?>
<!-- Created with Inkscape (http://www.inkscape.org/) -->

<svg
   xmlns:dc="http://purl.org/dc/elements/1.1/"
   xmlns:cc="http://creativecommons.org/ns#"
   xmlns:rdf="http://www.w3.org/1999/02/22-rdf-syntax-ns#"
   xmlns:svg="http://www.w3.org/2000/svg"
   xmlns="http://www.w3.org/2000/svg"
   version="1.1"
   width="12.8"
   height="30.4"
   viewBox="0 -200 128 304"
   id="svg2989">
  <metadata
     id="metadata2999">
    <rdf:RDF>
      <cc:Work
         rdf:about="">
        <dc:format>image/svg+xml</dc:format>
        <dc:type
           rdf:resource="http://purl.org/dc/dcmitype/StillImage" />
        <dc:title></dc:title>
      </cc:Work>
    </rdf:RDF>
  </metadata>
  <defs
     id="defs2997" />
  <g
     transform="matrix(1,0,0,-1,-46,556)"
     id="g2991">
    <path
       d="m 46,692 q 0,23 21,43.5 21,20.5 43,20.5 22,0 43,-21 21,-21 21,-43 0,-22 -21,-43 -21,-21 -43,-21 -22,0 -43,21 -21,21 -21,43 z m 0,-176 q 0,23 21,43.5 21,20.5 43,20.5 22,0 43,-21 21,-21 21,-43 0,-22 -21,-43 -21,-21 -43,-21 -22,0 -43,21 -21,21 -21,43 z"
       id="path2993"
       style="fill:currentColor" />
  </g>
</svg>
