<?xml version="1.0" encoding="UTF-8" standalone="no"?>
<svg
   xmlns:dc="http://purl.org/dc/elements/1.1/"
   xmlns:cc="http://creativecommons.org/ns#"
   xmlns:rdf="http://www.w3.org/1999/02/22-rdf-syntax-ns#"
   xmlns:svg="http://www.w3.org/2000/svg"
   xmlns="http://www.w3.org/2000/svg"
   id="svg2"
   height="24"
   width="22"
   version="1.1">
  <metadata
     id="metadata8">
    <rdf:RDF>
      <cc:Work
         rdf:about="">
        <dc:format>image/svg+xml</dc:format>
        <dc:type
           rdf:resource="http://purl.org/dc/dcmitype/StillImage" />
        <dc:title></dc:title>
      </cc:Work>
    </rdf:RDF>
  </metadata>
  <defs
     id="defs6" />
  <path
     id="path3363"
     d="m 0,22 22,0 0,2 -22,0 z"
     style="fill:#000000;fill-opacity:1;stroke:none" />
  <path
     id="path3361"
     d="M 0,0 0,20 22,20 22,0 0,0 Z m 10,4 2,0 0,1 0,4.1328124 2.3125,-2.3125 0.6875,-0.75 1.4375,1.4375 -0.75,0.6875 L 12,11.882812 12,14.625 14.3125,12.3125 15,11.5625 16.4375,13 l -0.75,0.6875 -4,4 -0.6875,0.75 -0.6875,-0.75 -4,-4 L 5.5625,13 7,11.5625 7.6875,12.3125 10,14.625 10,11.882812 6.3125,8.1953124 l -0.75,-0.6875 1.4375,-1.4375 0.6875,0.75 L 10,9.1328124 10,5 10,4 Z"
     style="fill:#000000;fill-opacity:1;stroke:none" />
</svg>
