<?xml version="1.0" encoding="UTF-8" standalone="no"?>
<svg
   xmlns:dc="http://purl.org/dc/elements/1.1/"
   xmlns:cc="http://creativecommons.org/ns#"
   xmlns:rdf="http://www.w3.org/1999/02/22-rdf-syntax-ns#"
   xmlns:svg="http://www.w3.org/2000/svg"
   xmlns="http://www.w3.org/2000/svg"
   style="fill:#000000"
   id="svg4679"
   xml:space="preserve"
   enable-background="new 0 0 100 100"
   viewBox="0 0 16.666688 22.292346"
   y="0px"
   x="0px"
   version="1.1"
   width="50.000061"
   height="66.877037"><metadata
     id="metadata4691"><rdf:RDF><cc:Work
         rdf:about=""><dc:format>image/svg+xml</dc:format><dc:type
           rdf:resource="http://purl.org/dc/dcmitype/StillImage" /><dc:title></dc:title></cc:Work></rdf:RDF></metadata><defs
     id="defs4689" /><path
     style="fill:#000000;stroke:#000000;stroke-width:3.5999999;stroke-miterlimit:10;opacity:0.75"
     id="path4681"
     d="M 11.236543,0"
     stroke-miterlimit="10" /><path
     d="m 11.592593,0.07654321 0,-0.0064198 -0.0064,0 -11.586173,0 0,8.36765429 2.7466667,2.7466663 2.7935802,-2.793333 2.7935803,2.793333 2.7930868,-2.793333 2.79358,2.793333 2.746173,-2.7466663 0,-3.3061729 -5.074074,-5.05506164 z m 0,1.25481479 3.808888,3.794321 -3.808888,0 z M 13.920494,9.9271605 11.126667,7.1338272 8.3333333,9.9274074 5.5397531,7.1338272 2.7461728,9.9274074 0.88864197,8.0698765 l 0,-7.11086416 9.81506203,0 0,5.05555556 5.074074,0 0,2.0550617 z M 5.54,12.155556 l 2.7935802,2.794074 2.7933338,-2.793828 2.793827,2.793828 1.857531,-1.857778 0,8.311605 -14.88938311,0 0,-8.311852 L 2.7466667,14.94963 5.54,12.155556 M 11.126667,10.898519 8.3335802,13.692346 5.54,10.898519 2.7464198,13.692099 0,10.945679 l 0,11.346667 16.666667,0 0,-11.346667 -2.746173,2.746667 -2.793827,-2.793827 z"
     style="fill:#000000;color:#000000;clip-rule:nonzero;display:inline;overflow:visible;visibility:visible;opacity:0.75;isolation:auto;mix-blend-mode:normal;color-interpolation:sRGB;color-interpolation-filters:linearRGB;solid-color:#000000;solid-opacity:1;fill-opacity:1;fill-rule:nonzero;stroke-width:1;stroke-linecap:butt;stroke-linejoin:miter;stroke-miterlimit:4;stroke-dasharray:none;stroke-dashoffset:0;stroke-opacity:1;filter-blend-mode:normal;filter-gaussianBlur-deviation:0;color-rendering:auto;image-rendering:auto;shape-rendering:auto;text-rendering:auto;enable-background:accumulate"
     id="path4685" /><path
     d="m 11.592593,1.331358 3.808888,3.7943211 -3.808888,0 z M 13.920494,9.9271608 11.126667,7.1338273 8.3333333,9.9274075 5.5397532,7.1338273 2.7461727,9.9274075 0.88864198,8.0698767 l 0,-7.11086428 9.81506202,0 0,5.05555538 5.074074,0 0,2.0550619 z M 5.5399998,12.155556 8.33358,14.94963 l 2.793334,-2.793828 2.793827,2.793828 1.857531,-1.857778 0,8.311605 -14.88938312,0 0,-8.311852 1.85777772,1.858025 2.7933332,-2.794074"
     style="color:#000000;clip-rule:nonzero;display:inline;overflow:visible;visibility:visible;opacity:0.75;isolation:auto;mix-blend-mode:normal;color-interpolation:sRGB;color-interpolation-filters:linearRGB;solid-color:#000000;solid-opacity:1;fill:#ffffff;fill-opacity:1;fill-rule:nonzero;stroke-width:1;stroke-linecap:butt;stroke-linejoin:miter;stroke-miterlimit:4;stroke-dasharray:none;stroke-dashoffset:0;stroke-opacity:1;color-rendering:auto;image-rendering:auto;shape-rendering:auto;text-rendering:auto;enable-background:accumulate"
     id="path4685-7" /></svg>