<?xml version="1.0" encoding="UTF-8" standalone="no"?>
<svg
   xmlns:dc="http://purl.org/dc/elements/1.1/"
   xmlns:cc="http://creativecommons.org/ns#"
   xmlns:rdf="http://www.w3.org/1999/02/22-rdf-syntax-ns#"
   xmlns:svg="http://www.w3.org/2000/svg"
   xmlns="http://www.w3.org/2000/svg"
   style="fill:#ffffff"
   version="1.1"
   id="svg2"
   width="17.49"
   viewBox="0 0 17.49 17.49"
   height="17.49">
  <metadata
     id="metadata12">
    <rdf:RDF>
      <cc:Work
         rdf:about="">
        <dc:format>image/svg+xml</dc:format>
        <dc:type
           rdf:resource="http://purl.org/dc/dcmitype/StillImage" />
        <dc:title></dc:title>
      </cc:Work>
    </rdf:RDF>
  </metadata>
  <defs
     id="defs10" />
  <path
     d="M 6.5,11 C 4.01,11 2,8.99 2,6.5 2,4.01 4.01,2 6.5,2 8.99,2 11,4.01 11,6.5 11,8.99 8.99,11 6.5,11 Z m 6,0 -0.79,0 -0.28,-0.27 C 12.41,9.59 13,8.11 13,6.5 13,2.91 10.09,0 6.5,0 2.91,0 0,2.91 0,6.5 0,10.09 2.91,13 6.5,13 8.11,13 9.59,12.41 10.73,11.43 L 11,11.71 11,12.5 16,17.49 17.49,16 12.5,11 Z"
     style="fill:#000000;fill-opacity:0.49803922;stroke:none"
     id="path4" />
</svg>
