<?xml version="1.0" encoding="UTF-8" standalone="no"?>
<svg
   xmlns:dc="http://purl.org/dc/elements/1.1/"
   xmlns:cc="http://creativecommons.org/ns#"
   xmlns:rdf="http://www.w3.org/1999/02/22-rdf-syntax-ns#"
   xmlns:svg="http://www.w3.org/2000/svg"
   xmlns="http://www.w3.org/2000/svg"
   width="24.338852"
   height="36.709484"
   id="svg4264"
   version="1.1">
  <metadata
     id="metadata4272">
    <rdf:RDF>
      <cc:Work
         rdf:about="">
        <dc:format>image/svg+xml</dc:format>
        <dc:type
           rdf:resource="http://purl.org/dc/dcmitype/StillImage" />
        <dc:title></dc:title>
      </cc:Work>
    </rdf:RDF>
  </metadata>
  <defs
     id="defs4270" />
  <path
     style="fill:none;stroke:#030303;stroke-width:2;stroke-linecap:round;stroke-linejoin:round;stroke-miterlimit:4;stroke-dasharray:none"
     d="m 2.011707,5.3338908 c 3.69263,-0.30794 7.28679,-0.007 10.9725,0.21 m -11.025,4.5675002 c 3.58656,-0.3257702 7.18013,-0.0832 10.7625,0.1575 m -10.29,4.5675 c 2.48593,0.0321 5.03097,-0.252 7.5075,0.0444 0.68475,0.082 1.88406,0.009 2.4455,0.4724 0.4284,0.35353 0.337,1.45556 0.337,1.95074 l -0.75236,18.40625 c 3.19221,-10.75553 9.29119,-30.9022002 9.5765,-32.2662502 0.0594,-0.35239 0.17352,-0.80153 0.0939,-1.155 -0.12678,-0.56261 -0.75321,-0.6594 -1.25301,-0.7348 -6.50866,-0.98612996 -13.13627,-0.38377 -19.3725,-0.2102 m 2.7825,27.7725002 19.53,-12.1275"
     id="path4266" />
</svg>
