<?xml version="1.0" encoding="UTF-8" standalone="no"?>
<svg
   xmlns:dc="http://purl.org/dc/elements/1.1/"
   xmlns:cc="http://creativecommons.org/ns#"
   xmlns:rdf="http://www.w3.org/1999/02/22-rdf-syntax-ns#"
   xmlns:svg="http://www.w3.org/2000/svg"
   xmlns="http://www.w3.org/2000/svg"
   version="1.1"
   id="svg4264"
   height="734.18964"
   width="486.77704">
  <metadata
     id="metadata4272">
    <rdf:RDF>
      <cc:Work
         rdf:about="">
        <dc:format>image/svg+xml</dc:format>
        <dc:type
           rdf:resource="http://purl.org/dc/dcmitype/StillImage" />
        <dc:title></dc:title>
      </cc:Work>
    </rdf:RDF>
  </metadata>
  <defs
     id="defs4270" />
  <path
     id="path4266"
     d="m 40.23474,106.67868 c 73.85271,-6.1589 145.73591,-0.13364 219.45,4.2 m -220.5,91.35 c 71.73121,-6.5155 143.60269,-1.66374 215.25,3.15 m -205.8,91.35 c 49.718655,0.64155 100.6194,-5.04 150.15,0.88725 13.69515,1.63905 37.68135,0.18165 48.91005,9.4479 8.568,7.0707 6.73995,29.11125 6.73995,39.01485 L 239.38771,714.20354 C 303.23173,499.09302 425.21138,96.159669 430.91769,68.87868 c 1.1886,-7.04781 3.47025,-16.030665 1.8774,-23.1 C 430.25934,34.52646 417.73074,32.590575 407.73474,31.08267 277.56157,11.359988 145.00943,23.407207 20.28474,26.87868 m 55.65,555.45 390.6,-242.55"
     style="fill:none;stroke:#030303;stroke-width:40;stroke-linecap:round;stroke-linejoin:round;stroke-miterlimit:4;stroke-dasharray:none" />
</svg>
