<?xml version="1.0" encoding="UTF-8" standalone="no"?>
<svg
   xmlns:dc="http://purl.org/dc/elements/1.1/"
   xmlns:cc="http://creativecommons.org/ns#"
   xmlns:rdf="http://www.w3.org/1999/02/22-rdf-syntax-ns#"
   xmlns:svg="http://www.w3.org/2000/svg"
   xmlns="http://www.w3.org/2000/svg"
   version="1.1"
   id="svg10980"
   height="331.91742"
   width="634.9223">
  <metadata
     id="metadata10996">
    <rdf:RDF>
      <cc:Work
         rdf:about="">
        <dc:format>image/svg+xml</dc:format>
        <dc:type
           rdf:resource="http://purl.org/dc/dcmitype/StillImage" />
        <dc:title></dc:title>
      </cc:Work>
    </rdf:RDF>
  </metadata>
  <defs
     id="defs10994" />
  <path
     id="path10982"
     d="m 229.17932,0.11358174 c -14.182,4.19198996 -32.176,1.75808996 -47,3.16976996 -35.179,3.35001 -70.306,7.6925303 -104.999997,14.6304303 -11.4167,2.283 -22.6493,5.2188 -34,7.7762 -4.7066,1.0604 -11.8696,1.7267 -15.6065,4.9876 -6.6691,5.8197 -9.3263,21.2345 -12.0602,29.436 -9.1247096,27.3742 -25.52102,65.851998 -12.0061396,93.999998 4.85824,10.119 15.8392396,18.165 23.6728396,26 2.8233,2.824 8.2568,6.595 8.2917,11 0.0569,7.198 -7.5127,17.448 -10.4306,24 -9.0897,20.41 -21.8161196,42.203 -26.8610996,64 M 302.17932,0.11358174 c 18.556,5.48488996 42.579,2.32030996 62,4.16976996 52.382,4.98823 105.845,10.6647303 157,23.4568303 14.959,3.7406 30.172,6.7208 45,10.9521 5.861,1.6726 14.81,3.1588 19.49,7.2639 3.702,3.2472 4.501,10.6337 5.801,15.1574 3.724,12.9614 7.165,25.9608 10.593,38.999998 13.689,52.064 29.116,108.87 29.116,163"
     style="fill:none;stroke:#fefefe" />
  <path
     id="path10986"
     d="m 38.179323,190.11358 c 8.1457,-3.073 17.3024,-3.082 25,-7.349 11.8959,-6.593 21.3302,-16.944 32,-25.226 16.483997,-12.795 35.020997,-24.397 53.999997,-33.116 36.696,-16.86 77.544,-31.159198 118,-35.139198 40.898,-4.0236 81.442,1.5903 122,5.6612 21.448,2.1528 57.557,2.8686 73.334,19.427998 12.547,13.169 16.75,37.685 21.666,54.741 3.999,13.876 11.223,32.852 4.427,46.999 -4.988,10.384 -18.866,8.68 -28.427,7.425 -23.263,-3.053 -48.604,3.034 -72,3.6 -66.847,1.616 -136.4,13.957 -202,26.38 -21.383,4.049 -42.696,8.188 -64,12.599 -13.597,2.815 -27.015997,6.988 -40.999997,6.997"
     style="fill:none;stroke:#fefefe" />
  <path
     d="M 20.179323,129.11358 C 104.58163,24.224678 235.03148,7.4441552 369.96853,31.885905 504.90558,56.327655 599.16558,154.28443 614.92248,309.2875 417.87136,316.11854 220.82023,308.41351 23.769116,300.08708 67.613009,239.09765 268.27154,140.23211 420.17932,143.11358"
     style="fill:none;stroke:#020202;stroke-width:40;stroke-linecap:round;stroke-linejoin:round;stroke-miterlimit:4;stroke-dasharray:none"
     id="path10988" />
  <path
     id="path10990"
     d="m 485.17932,224.11358 55,28 m 91,33 c 0,9.049 0.338,29.498 -6.564,36.298 -5.181,5.104 -17.518,6.559 -24.436,6.702 m -601.9999966,-24 c 0.79093,5.356 2.53497998,14.866 8.10494,17.258 10.2762596,4.415 25.9451596,1.742 36.8950596,1.742 25.3883,0 50.6135,1 75.999997,1 129.621,0 259.296,4 389,4"
     style="fill:none;stroke:#fefefe" />
</svg>
